<?xml version="1.0" encoding="UTF-8" standalone="no"?>
<!-- Created with Inkscape (http://www.inkscape.org/) -->

<svg
   xmlns:dc="http://purl.org/dc/elements/1.1/"
   xmlns:cc="http://creativecommons.org/ns#"
   xmlns:rdf="http://www.w3.org/1999/02/22-rdf-syntax-ns#"
   xmlns:svg="http://www.w3.org/2000/svg"
   xmlns="http://www.w3.org/2000/svg"
   xmlns:sodipodi="http://sodipodi.sourceforge.net/DTD/sodipodi-0.dtd"
   xmlns:inkscape="http://www.inkscape.org/namespaces/inkscape"
   width="196.85489mm"
   height="168.41087mm"
   viewBox="0 0 697.51729 596.73144"
   id="svg9294"
   version="1.1"
   inkscape:version="0.91 r13725"
   sodipodi:docname="skull and hans.svg">
  <defs
     id="defs9296" />
  <sodipodi:namedview
     id="base"
     pagecolor="#ffffff"
     bordercolor="#666666"
     borderopacity="1.0"
     inkscape:pageopacity="0.0"
     inkscape:pageshadow="2"
     inkscape:zoom="0.76673075"
     inkscape:cx="482.43694"
     inkscape:cy="280.17317"
     inkscape:document-units="px"
     inkscape:current-layer="layer1"
     showgrid="false"
     fit-margin-top="0"
     fit-margin-left="0"
     fit-margin-right="0"
     fit-margin-bottom="0"
     inkscape:window-width="1366"
     inkscape:window-height="705"
     inkscape:window-x="-8"
     inkscape:window-y="-8"
     inkscape:window-maximized="1"
     showguides="false" />
  <metadata
     id="metadata9299">
    <rdf:RDF>
      <cc:Work
         rdf:about="">
        <dc:format>image/svg+xml</dc:format>
        <dc:type
           rdf:resource="http://purl.org/dc/dcmitype/StillImage" />
        <dc:title></dc:title>
      </cc:Work>
    </rdf:RDF>
  </metadata>
  <g
     inkscape:label="Layer 1"
     inkscape:groupmode="layer"
     id="layer1"
     transform="translate(-468.91621,-155.82845)">
    <rect
       style="opacity:1;fill:#000000;fill-opacity:1;fill-rule:evenodd;stroke:none;stroke-width:4.5;stroke-linecap:round;stroke-miterlimit:4;stroke-dasharray:none;stroke-opacity:1"
       id="rect10885"
       width="697.51733"
       height="596.73145"
       x="468.9162"
       y="155.82845" />
    <g
       id="g10852">
      <g
         id="g10847">
        <path
           style="fill:#ffffff;stroke:#000000"
           d="m 818.30816,235.14372 c 15.21978,-0.0508 27.6567,2.12467 37.5,6.56054 3.575,1.61107 8.44912,3.81259 10.83007,4.89063 13.98562,6.33238 30.88912,19.65492 39.68942,31.28125 5.8223,7.69193 12.5442,20.04829 12.0411,22.13281 -0.3321,1.37562 0.3103,2.63888 1.9746,3.88867 3.0824,2.31484 3.1533,3.42709 0.1836,2.85938 -3.3762,-0.6454 -3.2196,2.85871 0.2773,6.20898 1.5694,1.50358 2.6277,3.3233 2.3516,4.04297 -0.2762,0.71967 0.4335,1.80839 1.5761,2.41992 1.1427,0.61153 2.0762,1.92935 2.0762,2.92969 0,1.00034 1.1335,3.04172 2.5176,4.53516 4.862,5.24619 7.7327,14.07193 8.2656,25.40429 0.4684,9.95932 -0.9488,18.80482 -2.8262,17.64453 -0.6735,-0.41627 -1.1303,0.86896 -2.4961,7.02539 -0.244,1.1 0.4408,0.2 1.5215,-2 1.4233,-2.89728 1.9732,-3.41643 1.9922,-1.88867 0.014,1.16008 1.4124,4.70643 3.1074,7.88281 3.646,6.83247 6.3146,18.45966 5.4707,23.83399 -0.95,6.05063 -6.2823,15.53002 -12.0097,21.34961 l -5.2617,5.34765 -9.1407,-0.37304 c -6.0167,-0.24579 -9.1406,-0.0116 -9.1406,0.6875 0,0.67261 -0.4392,0.62136 -1.1992,-0.13867 -1.6704,-1.6704 -3.1303,-1.49991 -2.4453,0.28515 0.4699,1.22467 -0.2921,1.40246 -4.3555,1.01563 -3.956,-0.37661 -4.8179,-0.19229 -4.3828,0.9414 0.4044,1.0538 -0.048,1.26417 -1.7871,0.82813 -2.3126,-0.5799 -2.3154,-0.5695 -0.4238,1.57226 1.0477,1.18635 1.5944,2.15821 1.2148,2.15821 -0.3796,0 -0.1699,1.01249 0.4668,2.25 0.9553,1.85685 0.9253,2.03157 -0.166,1 -1.834,-1.7336 -3.2553,-1.5637 -2.5391,0.30273 0.3276,0.85356 0.1869,1.29887 -0.3125,0.99024 -1.2016,-0.74265 -3.2953,5.70519 -2.5137,7.74218 0.336,0.87553 0.1379,2.4084 -0.4414,3.4043 -0.9633,1.65618 -1.0561,1.61849 -1.0839,-0.43945 -0.017,-1.23751 -0.5074,-2.25 -1.0899,-2.25 -0.5825,-1e-5 -0.8376,0.35811 -0.5664,0.79687 0.2712,0.43876 0.1285,1.39022 -0.3184,2.11328 -0.5458,0.88317 0.4589,2.46439 3.0645,4.81836 2.1332,1.92719 3.8789,4.0791 3.8789,4.78125 0,0.70216 0.608,1.50959 1.3516,1.79493 0.793,0.3043 1.629,2.87343 2.0215,6.21289 0.8264,7.03171 2.1725,9.76093 4.4531,9.03711 1.0424,-0.33087 2.1856,0.23359 2.9472,1.45312 0.7392,1.18358 0.8354,1.99219 0.2364,1.99219 -0.5547,0 -1.0098,-0.45 -1.0098,-1 0,-0.55 -0.4382,-1 -0.9746,-1 -0.6337,0 -0.6337,0.89778 0,2.56445 1.2642,3.32512 1.2468,3.43555 -0.5254,3.43555 -0.825,0 -1.5,0.46886 -1.5,1.04297 0,0.57411 0.7618,0.91161 1.6914,0.75 1.8542,-0.32234 2.7808,2.23544 3.8535,10.62695 1.0111,7.90909 2.4222,3.38933 2.4395,-7.81055 0.012,-7.5623 0.3658,-10.15104 1.5,-11 0.9893,-0.74049 1.8351,-4.43977 2.541,-11.10937 1.7981,-16.98967 3.1235,-24.87792 4.707,-28 1.9766,-3.89705 1.663,-3.68912 4.5254,-2.97071 l 2.4922,0.625 -2.0937,5.17188 c -1.7891,4.42078 -2.0866,7.20968 -2.0469,19.17383 0.045,13.46117 1.655,24.1711 4.5195,30.05469 0.7596,1.56004 0.3708,3.72841 -1.6133,9 -3.4409,9.14251 -4.7748,11.02757 -9.5293,13.45312 -2.1919,1.11825 -3.9863,2.6979 -3.9863,3.51172 0,0.81383 -0.45,1.48043 -1,1.48047 -0.55,0 -1.0019,0.5625 -1.0039,1.25 -0.01,1.54278 -6.6986,14.81972 -10.209,20.25 -3.7568,5.81155 -12.7386,14.05973 -16.76952,15.40039 -1.91524,0.637 -4.84024,2.47164 -6.5,4.07812 -2.12688,2.05861 -5.31438,3.61063 -8.91015,4.49414 -0.004,9.4e-4 -0.008,10e-4 -0.0117,0.002 -1.40366,0.22677 -2.45533,0.41555 -3.13281,0.57617 -2.7048,0.35252 -5.52176,0.34683 -8.2168,-0.0918 -3.15926,-0.51418 -6.53333,-0.68447 -7.49609,-0.3789 -0.96275,0.30557 -1.75,0.0846 -1.75,-0.48829 0,-0.57294 -1.40984,-1.76916 -3.13282,-2.66015 -2.58566,-1.3371 -3.28116,-1.3869 -3.98437,-0.27735 -0.68891,1.087 -0.85801,1.0586 -0.88281,-0.15429 -0.0206,-1.00807 -0.27184,-1.12585 -0.76563,-0.36133 -0.40408,0.62568 -2.53437,1.89929 -4.73437,2.83398 -2.2,0.93469 -4.9,2.04193 -6,2.45899 -2.67817,1.01542 -18.19414,-3.08917 -24.25782,-6.41797 -6.23715,-3.42403 -12.04219,-8.87462 -12.83984,-12.05274 -0.35184,-1.40181 -1.14962,-2.3694 -1.77148,-2.15039 -0.62186,0.21902 -3.32737,-1.33501 -6.01172,-3.45507 -2.68434,-2.12006 -5.20774,-3.85547 -5.60743,-3.85547 -1.2563,0 -18.43396,-11.64229 -20.09179,-13.61719 -3.55706,-4.23738 -6.57565,-11.09497 -6.77149,-15.38281 -0.25887,-5.66786 -2.00653,-13.5003 -3.76953,-16.89453 -0.94223,-1.81405 -1.01826,-2.71761 -0.25,-2.97657 0.60679,-0.20454 1.38744,0.0723 1.73633,0.61524 0.34889,0.54291 1.64727,1.30325 2.88477,1.68945 1.67498,0.52272 2.25,0.29963 2.25,-0.86719 0,-0.86207 -0.64203,-1.56642 -1.42774,-1.5664 -0.78572,0 -2.13212,-0.70439 -2.99219,-1.56446 -0.86007,-0.86008 -2.01804,-1.28198 -2.57226,-0.93945 -0.58228,0.35987 -1.00781,-0.52467 -1.00781,-2.0918 l 0,-2.71289 -2,2.3086 c -2.38003,2.74419 -2.31283,1.85737 -0.51563,6.95117 1.88904,5.35409 0.19303,5.05955 -3.84375,-0.66797 -3.1493,-4.46827 -4.64944,-12.3634 -2.77734,-14.61914 1.94365,-2.34196 -0.27388,-15.12391 -3.78711,-21.82617 -3.44213,-6.56661 -3.78215,-8.5405 -1.55078,-9.01367 1.02627,-0.21762 -0.89341,-2.7762 -5.8711,-7.82422 -4.06753,-4.12501 -8.31348,-8.24669 -9.43554,-9.16016 -1.504,-1.22441 -2.22645,-3.40413 -2.75,-8.29297 -0.81398,-7.60084 -0.32171,-11.61472 2.51367,-20.49023 1.10993,-3.47437 2.01758,-8.0763 2.01758,-10.22656 0,-4.14522 -2.78488,-10.54881 -6.54297,-15.04493 -1.24849,-1.49369 -3.04567,-6.00805 -3.99414,-10.03125 -1.61351,-6.84392 -1.61952,-7.89338 -0.0879,-16.28515 0.90038,-4.93311 1.7734,-9.52846 1.93945,-10.21289 0.78023,-3.21591 5.34581,-7.6398 9.78906,-9.48633 2.6937,-1.11946 4.89649,-2.41141 4.89649,-2.86914 0,-0.45773 2.3625,-1.18008 5.25,-1.60547 l 5.25,-0.77344 -5,-0.60351 c -4.6985,-0.56749 -4.5597,-0.61409 2.30859,-0.76172 5.16092,-0.11093 7.10406,-0.4886 6.60938,-1.28907 -0.47497,-0.76848 -3.15082,-0.95096 -8.3086,-0.56445 -5.69868,0.42704 -7.13046,0.30002 -5.70312,-0.5039 1.20395,-0.67811 5.62284,-0.86692 12,-0.51563 9.17696,0.50551 9.86656,0.42191 7.59375,-0.90625 l -2.5,-1.46094 2.5,0.67969 c 1.375,0.37342 3.0625,0.89007 3.75,1.14844 0.6875,0.25837 1.25,0.0169 1.25,-0.53711 0,-1.98805 -16.15674,-4.69374 -22.06641,-3.69531 -5.53972,0.93593 -4.07734,1.93072 2.33984,1.59179 6.74386,-0.35618 5.86745,0.43382 -1.38672,1.25 -5.35815,0.60286 -5.60798,0.52946 -5.5,-1.61133 0.10708,-2.12279 0.586,-2.2583 8.96485,-2.5332 9.10435,-0.2987 21.12046,2.02383 28.43359,5.49414 7.58568,3.59964 3.8019,-2.35403 -4.01562,-6.31836 -6.21187,-3.1501 -15.92016,-5.38316 -22.76953,-5.23828 l -5.5,0.11524 5.5,0.72851 c 6.99349,0.92605 18.20647,3.81582 19.38671,4.9961 0.49727,0.49726 -1.97288,0.22209 -5.49023,-0.61133 -3.88487,-0.92049 -9.63478,-1.38978 -14.64648,-1.19532 -4.53758,0.17607 -8.25008,0.0724 -8.25,-0.23046 3.9e-4,-1.51838 15.33668,-32.6271 19.27734,-39.10352 3.8136,-6.26758 11.89096,-14.27521 20.35352,-20.17578 4.47216,-3.11823 8.53186,-5.66992 9.01953,-5.66992 0.48766,0 2.51819,-1.10889 4.51367,-2.46485 4.11828,-2.79844 13.21655,-6.06114 19.73437,-7.07617 2.41898,-0.37672 6.01898,-1.37232 8,-2.21289 2.5886,-1.09838 7.25864,-1.54106 16.60157,-1.57226 z"
           id="path10840"
           inkscape:connector-curvature="0" />
        <path
           style="fill:#000000"
           d="m 1998.75,237.79102 c -1.0558,0 -1.0214,7.90432 0.037,8.55859 0.5427,0.33539 0.7238,1.43827 0.4024,2.45117 -0.3717,1.17094 0.068,2.22109 1.2089,2.88477 2.6149,1.52157 3.725,1.33093 2.293,-0.39453 -0.8489,-1.02292 -0.89,-1.5 -0.1309,-1.5 1.6333,0 0.4029,-8.04311 -1.5625,-10.21485 -0.8889,-0.98232 -1.9001,-1.78515 -2.248,-1.78515 z m -80.1484,9.98828 c -3.9532,-0.0743 -9.0009,1.06616 -9.6407,2.90625 -0.3074,0.8843 -1.4592,2.33366 -2.5586,3.2207 -1.0993,0.88703 -1.6814,2.12453 -1.2949,2.75 0.8155,1.31947 0.904,1.33436 3.002,0.5293 0.87,-0.33384 1.582,-1.22841 1.582,-1.98828 0,-0.75987 0.7144,-2.2145 1.5859,-3.23243 1.3821,-1.61412 2.2158,-1.72555 6.5274,-0.87304 5.3051,1.04896 6.4769,0.67793 5.543,-1.75586 -0.3957,-1.03095 -2.3742,-1.51206 -4.7461,-1.55664 z m -53.8184,3.32422 c -0.4141,-0.0217 -0.8727,0.0532 -1.3652,0.24218 -1.9994,0.76724 -2.9923,4.65969 -1.4395,5.64649 2.0983,1.33341 3.3559,0.87942 4.4961,-1.62305 1.0333,-2.26774 0.1028,-4.17179 -1.6914,-4.26562 z m 129.209,0.10742 c -5.1561,-0.19007 -10.2409,2.94043 -10.2695,7.08203 -0.013,1.83209 0.6864,2.00952 8.3261,2.11523 4.587,0.0635 9.1963,0.61341 10.2422,1.22071 2.396,1.39119 4.4004,1.46542 4.4004,0.16406 0,-0.55 -0.7069,-1 -1.5723,-1 -0.9662,0 -1.4375,-0.67524 -1.2207,-1.75 0.4374,-2.16735 -2.8134,-5.80267 -6.3867,-7.14258 -1.1361,-0.42602 -2.3296,-0.64559 -3.5195,-0.68945 z m -149.0215,6.54492 c -0.1458,0.006 -0.2295,0.0956 -0.2344,0.28711 -0.025,0.9625 0.3284,1.75 0.7852,1.75 0.4567,0 2.2851,2.025 4.0625,4.5 3.4108,4.74946 4.1074,5.29602 4.1074,3.22265 0,-1.90111 -7.3108,-9.81306 -8.7207,-9.75976 z m 50.0566,3.30078 c -0.083,-0.009 -0.1702,-0.008 -0.2597,0.002 -0.597,0.065 -1.3389,0.55369 -2.2617,1.47657 -2.0103,2.0103 -2.2529,2.04276 -3.4219,0.46093 -1.4126,-1.91148 -2.7649,-1.03943 -3.8223,2.4668 -0.5959,1.97595 -0.3323,2.14555 2.9297,1.88672 4.1252,-0.32731 9.1446,-4.31242 7.502,-5.95508 -0.1967,-0.19664 -0.4168,-0.31035 -0.6661,-0.33789 z m 96.3438,0.2168 c -0.2776,0.009 -0.5349,0.0269 -0.7695,0.0566 -4.6603,0.5898 -4.842,1.45067 -0.3262,1.54297 2.1542,0.044 6.616,0.8899 9.916,1.88086 7.7172,2.31745 9.5557,2.46727 6.8223,0.55273 -2.8343,-1.9852 -11.4792,-4.16055 -15.6426,-4.0332 z m -134.4336,2.94726 c -0.456,0.0907 -0.689,0.94208 -0.6211,2.57227 0.1928,4.62724 0.2993,5 1.4336,5 0.5825,0 0.7813,-0.45 0.4414,-1 -0.3399,-0.55 -0.141,-1 0.4414,-1 0.5825,0 1.0662,0.1125 1.0742,0.25 0.01,0.1375 0.6625,2.05 1.4551,4.25 1.3947,3.87119 1.4447,3.90339 1.502,1 0.076,-3.8484 1.5737,-1.83236 3.1582,4.25 0.6089,2.3375 1.4317,4.25 1.8281,4.25 0.3964,0 1.2329,1.125 1.8594,2.5 1.425,3.12758 3.1816,3.24444 3.1816,0.21094 0,-3.38414 -2.9349,-14.05544 -4.1836,-15.21094 -1.1344,-1.04978 -0.6874,2.99381 0.7734,7 0.4221,1.15699 0.3522,1.65588 -0.164,1.18359 -0.4908,-0.44902 -1.5929,-2.69902 -2.4492,-5 -1.1738,-3.15395 -2.038,-4.12314 -3.5157,-3.93945 -1.3378,0.16632 -2.4557,-0.76709 -3.5195,-2.9375 -1.1546,-2.35582 -2.1091,-3.49551 -2.6953,-3.37891 z m 132.6445,4.44727 c -2.2759,6e-4 -3.8906,0.34834 -3.8906,1.125 0,0.55 1.9384,1 4.3066,1 2.3682,0 6.9807,0.8622 10.25,1.91601 3.2693,1.05381 7.1222,2.17278 8.5625,2.48633 1.4403,0.31354 4.5646,2.81397 6.9434,5.55664 2.3788,2.74267 4.4962,4.81633 4.7051,4.60743 0.9591,-0.9591 -3.1479,-6.73856 -7.002,-9.85352 -6.4765,-5.23444 -11.8734,-7.69921 -8.3613,-3.81836 1.4575,1.61054 1.0074,1.53576 -3.0137,-0.5 -3.073,-1.55576 -8.7067,-2.52055 -12.5,-2.51953 z m -90.8925,5.90625 c -0.1533,0.008 -0.3199,0.0247 -0.4981,0.0547 -2.1536,0.3625 -6.5,3.95952 -6.5,5.3789 0,0.47639 -0.9643,2.17315 -2.1445,3.76953 -1.9925,2.69501 -2.0548,3.24566 -0.8477,7.70899 0.7151,2.64385 1.4824,5.14414 1.7051,5.55664 0.2227,0.4125 0.8229,0.75 1.332,0.75 0.5237,0 0.6866,-2.49711 0.377,-5.75 -0.6356,-6.67854 1.4627,-11.92711 5.5781,-13.95313 2.8074,-1.38211 3.297,-3.6347 0.9981,-3.51562 z m 54.8105,2.21875 c -2.1478,0 -3.0991,0.63679 -3.832,2.56445 -0.5364,1.4108 -0.9766,2.7608 -0.9766,3 0,0.23919 1.5031,0.43555 3.3398,0.43555 2.5548,0 3.597,-0.56423 4.4336,-2.40039 1.3273,-2.91301 0.761,-3.59961 -2.9648,-3.59961 z m 41.166,1.52734 0,0.002 c -1.8484,0.002 -3.3049,0.19554 -3.5703,0.625 -0.2875,0.46513 -1.4427,0.8457 -2.5684,0.8457 -2.6726,0 -7.6098,4.18037 -7.0214,5.94531 0.3208,0.96239 -0.068,1.17144 -1.2989,0.69922 -1.3971,-0.53614 -1.6475,-0.2624 -1.2285,1.33984 0.3899,1.49076 0.038,2.01563 -1.3496,2.01563 -1.1956,0 -1.6801,0.50649 -1.3379,1.39844 0.2952,0.76937 0.05,1.70167 -0.5469,2.07031 -0.5964,0.36863 -0.8262,1.08761 -0.5097,1.59961 0.3164,0.51199 -0.1563,0.93164 -1.0508,0.93164 -1.2249,0 -1.4564,0.5535 -0.9356,2.24805 0.3805,1.2375 0.3478,1.92697 -0.072,1.52929 -0.4202,-0.39768 -1.4874,0.6827 -2.3731,2.40235 -1.0708,2.07925 -3.7887,4.29889 -8.1113,6.62304 -3.575,1.92219 -8.4845,4.81076 -10.9102,6.41992 -2.4254,1.60916 -5.2379,2.9863 -6.25,3.0625 -1.0118,0.0762 -1.8398,0.49284 -1.8398,0.92579 0,0.43296 -0.675,0.78711 -1.5,0.78711 -0.825,0 -1.5,0.71454 -1.5,1.58789 0,1.3114 -0.74,1.46564 -4.25,0.88671 -2.3375,-0.38553 -4.7,-1.03723 -5.25,-1.44921 -0.55,-0.41197 -2.1802,-1.03116 -3.623,-1.375 -4.5398,-1.08183 -5.7753,-6.57135 -3.2969,-14.65039 0.6858,-2.23569 0.5939,-2.35614 -0.8789,-1.14844 -0.9059,0.74277 -1.9344,2.88027 -2.2852,4.75 -0.3616,1.92789 -1.2398,3.39844 -2.0273,3.39844 -0.7638,0 -1.3887,0.40338 -1.3887,0.89453 0,0.49116 -0.7852,1.19377 -1.7461,1.5625 -2.181,0.83693 -6.2539,-3.58388 -6.2539,-6.78907 0,-1.22195 -0.64,-3.1368 -1.4238,-4.25586 -0.9288,-1.32598 -1.1086,-2.53754 -0.5156,-3.4746 1.1581,-1.83027 1.181,-2.93555 0.062,-2.93555 -0.4823,0 -1.865,2.30041 -3.0743,5.11133 -2.366,5.49988 -2.0153,7.90106 1.834,12.54492 3.6528,4.40671 13.0581,4.95723 11.4121,0.66797 -0.4187,-1.09125 -0.056,-1.42515 1.2696,-1.16992 1.193,0.22976 2.1076,1.58651 2.5605,3.80078 0.3875,1.89481 1.4192,3.96796 2.291,4.60547 2.1729,1.58886 1.9874,2.35506 -0.416,1.72656 -1.133,-0.29628 -2,-0.0282 -2,0.61523 0,0.7291 -0.9477,0.89757 -2.6484,0.47071 -1.8644,-0.46793 -2.4398,-0.32595 -1.9414,0.48046 0.3895,0.63021 1.3783,1.14454 2.1972,1.14454 1.8635,0 6.319,4.96052 6.3614,7.08203 0.017,0.86957 1.1562,2.18403 2.5312,2.91992 1.7785,0.95179 2.5,2.16757 2.5,4.2168 0,5.85149 5.0654,11.11718 10.6973,11.11718 0.8132,0 1.8792,1.04869 2.3672,2.33203 1.1703,3.0781 2.3218,3.0036 1.5429,-0.0996 -0.4673,-1.86188 -0.1468,-2.57877 1.3711,-3.06055 2.2307,-0.70799 10.0805,4.04168 13.6992,8.28906 1.198,1.40609 3.673,3.09735 5.5,3.75977 4.0799,1.47923 5.2992,1.63431 6.1524,0.78125 0.5725,-0.57254 -6.4131,-4.30582 -7.9121,-4.22852 -0.2999,0.0155 -2.4907,-1.69066 -4.8692,-3.79101 -5.5209,-4.87528 -9.1056,-7.39461 -13.5214,-9.50196 -3.8139,-1.82002 -5.5192,-0.62729 -2.3829,1.66602 1.0193,0.74518 1.4746,1.72807 1.0118,2.18554 -0.9339,0.92291 -7.6172,-6.44023 -7.6407,-8.41796 -0.01,-0.6875 -0.4298,-1.25 -0.9375,-1.25 -0.5077,-3e-5 -2.3059,-1.3821 -3.9961,-3.07227 -2.5104,-2.51045 -2.8854,-3.42578 -2.0429,-5 1.0885,-2.03385 2.9609,-2.62082 2.9609,-0.92773 0,0.55 0.661,1 1.4688,1 0.979,0 1.2527,-0.58331 0.8203,-1.75 -0.3568,-0.9625 0.571,-0.32009 2.0605,1.42773 1.7734,2.08101 4.8553,3.91522 8.9297,5.3125 3.422,1.17355 8.0971,3.11862 10.3887,4.32227 13.219,6.94306 21.6777,10.71955 25.3125,11.30078 3.5493,0.56756 4.6931,0.24626 8.3183,-2.33789 2.3114,-1.64761 6.3657,-3.94553 9.0098,-5.10547 6.4082,-2.81117 11.1373,-7.98173 11.2715,-12.32422 0.057,-1.84025 0.8876,-6.85532 1.8457,-11.14453 1.5731,-7.04296 1.5918,-8.02527 0.207,-10.13867 -1.2204,-1.86257 -1.3221,-3.10544 -0.498,-6.08985 0.7609,-2.75581 0.7264,-3.94164 -0.1328,-4.47265 -0.8291,-0.51237 -0.7177,-0.89533 0.3847,-1.31836 1.3897,-0.53328 1.3987,-1.03731 0.084,-4.76368 -0.8089,-2.2926 -1.4707,-5.20314 -1.4707,-6.46679 0,-2.51086 -4.04,-7.86819 -7.2168,-9.56836 -1.5575,-0.83357 -5.728,-1.3575 -8.8086,-1.35352 z m 15.5996,1.64649 c -0.066,0.0123 -0.1219,0.038 -0.164,0.0801 -0.3175,0.31745 0.2494,1.47812 1.2578,2.57812 1.9671,2.14595 3.332,2.6863 3.332,1.32031 0,-1.16797 -3.4405,-4.16351 -4.4258,-3.97851 z m -80.5742,0.47656 -2.5762,2.41992 c -1.8727,1.75935 -2.4674,3.17332 -2.1738,5.17383 0.4686,3.19268 0,3.44779 -1.8574,1.00391 -0.7307,-0.9625 -1.3419,-1.24922 -1.3594,-0.63672 -0.017,0.6125 1.123,2.26948 2.5352,3.68164 1.6128,1.61285 3.6158,2.53858 5.3867,2.48828 2.7998,-0.0796 2.8088,-0.1043 1.4316,-3.40039 -0.7627,-1.82541 -1.3867,-4.98685 -1.3867,-7.02539 l 0,-3.70508 z m 2.7988,0.34766 c -0.9543,0 -1.043,4.52874 -0.1738,8.875 0.3438,1.71875 1.05,3.125 1.5684,3.125 0.551,0 0.6052,-0.93445 0.1308,-2.25 -0.4462,-1.2375 -0.7929,-3.9375 -0.7695,-6 0.023,-2.0625 -0.3166,-3.75 -0.7559,-3.75 z m -127.3808,0.34375 c -0.1194,0.008 -0.2588,0.0579 -0.418,0.15625 -0.55,0.33992 -0.9924,1.60355 -0.9844,2.80859 0.012,1.78123 0.1963,1.91089 0.9844,0.69141 1.114,-1.72385 1.2535,-3.71301 0.418,-3.65625 z m 14.1133,2.58398 c -7.3157,0.0521 -9.965,0.51625 -11.5313,1.83008 -0.825,0.69201 -1.853,1.23894 -2.2852,1.21484 -0.432,-0.0241 -1.4983,0.66823 -2.3691,1.53906 -0.8708,0.87084 -1.8544,1.31352 -2.1855,0.98243 -0.3311,-0.3311 -0.165,-0.91624 0.3691,-1.29883 0.5341,-0.3826 1.1125,-1.59531 1.2852,-2.69531 0.2061,-1.31297 -0.5983,-0.68475 -2.3399,1.82812 -1.8648,2.69075 -2.4715,4.54826 -2.043,6.25586 0.3948,1.57286 0.2055,2.34019 -0.539,2.17383 -1.8995,-0.42443 -2.1801,8.74331 -0.4492,14.69726 1.6938,5.82664 1.8398,6.01009 9.4492,12.04493 4.6949,3.72346 7.2977,8.3783 7.4121,13.25195 0.016,0.6875 0.3736,1.25 0.7949,1.25 0.4213,0 1.0208,0.78748 1.332,1.75 0.8963,2.77155 5.4002,4.24997 12.9493,4.25 6.6161,-3e-5 21.7594,3.22202 24.2422,5.1582 0.6177,0.48179 1.8552,0.59334 2.75,0.25 0.8947,-0.34333 1.6269,-0.15434 1.6269,0.41797 0,0.57231 1.2375,1.2279 2.75,1.45703 4.8854,0.74007 5.2519,0.7301 7.0137,-0.19922 0.955,-0.50377 3.4511,-1.66337 5.5469,-2.57617 2.0957,-0.91281 4.0985,-2.41501 4.4511,-3.33594 0.3527,-0.92094 1.6145,-3.10503 2.8028,-4.85742 1.1882,-1.75239 2.4502,-5.00225 2.8046,-7.21875 0.4628,-2.89399 1.0392,-3.87891 2.0469,-3.49219 1.9871,0.76251 7.2654,-2.18716 9.2031,-5.14453 1.3182,-2.01179 1.5017,-3.86345 0.9454,-9.50976 -0.7108,-7.21261 -2.8883,-13.95117 -4.5079,-13.95117 -0.9574,0 0.063,4.60324 1.6485,7.43554 0.4872,0.87065 0.6395,3.66872 0.3398,6.21875 -0.6871,5.8459 -2.8269,7.48693 -6.7715,5.19141 -1.5256,-0.88788 -4.2533,-1.92944 -6.0625,-2.31641 -2.6559,-0.56808 -3.1715,-1.07351 -2.6816,-2.61719 0.4022,-1.2671 0.1284,-1.9121 -0.8086,-1.9121 -2.9748,0 -7.434,-3.11346 -10.6973,-7.46875 -1.8672,-2.49211 -4.2112,-4.53125 -5.2089,-4.53125 -1.0803,0 -1.8145,-0.72893 -1.8145,-1.80079 0,-2.48637 -2.06,-4.39239 -3.4766,-3.21679 -0.7438,0.61731 -3.1431,-0.40745 -7.0742,-3.02149 -8.1052,-5.38976 -16.2969,-7.97155 -25.4863,-8.03125 -1.246,-0.008 -2.3866,-0.009 -3.4316,-0.002 z m 116.7109,0.0391 c -1.8673,0.13567 -1.4065,2.0213 1.6816,5.10938 2.8242,2.82414 8.0762,4.07556 8.0762,1.92383 0,-0.55 -1.054,-1 -2.3437,-1 -1.2898,0 -3.2023,-0.96148 -4.25,-2.13672 l -1.9063,-2.13672 3.3652,1.72265 c 2.3548,1.20501 3.6816,1.40439 4.418,0.66797 0.7364,-0.73642 0.4764,-1.23623 -0.8652,-1.66601 -1.0545,-0.33778 -2.9515,-1.02796 -4.2149,-1.53321 -1.7824,-0.71284 -3.1121,-1.01284 -3.9609,-0.95117 z m 78.0078,7.53321 c -0.6642,0.0217 -0.7885,1.38652 0.1777,3.77148 0.7193,1.77549 1.2179,4.24102 1.1075,5.47852 -0.2923,3.27395 1.1949,2.75673 1.9492,-0.67774 0.4095,-1.86439 0.06,-4.05305 -0.9629,-6.03125 -0.9108,-1.76124 -1.7549,-2.55785 -2.2715,-2.54101 z m -93.0586,0.63086 c -0.2864,-0.0838 -0.1715,0.75839 0.4317,2.33007 0.3429,0.8937 0.8343,1.41568 1.0917,1.15821 0.2576,-0.25747 -0.01,-1.29118 -0.5917,-2.29493 -0.4421,-0.7602 -0.7599,-1.14307 -0.9317,-1.19335 z m -2.5801,0.25781 c -0.3586,0.0249 -0.6113,0.44389 -0.6113,1.11133 0,0.88992 -0.4177,1.35939 -0.9297,1.04296 -1.2812,-0.79183 -2.3559,1.18476 -1.4453,2.65821 0.5774,0.93432 0.8311,0.93432 1.1426,0 0.2201,-0.66041 1.0372,-1.20117 1.8164,-1.20117 1.6171,0 1.9223,-2.56906 0.416,-3.5 -0.1375,-0.085 -0.2691,-0.11962 -0.3887,-0.11133 z m 99.043,11.80859 c -0.1092,0.0278 -0.2553,0.12888 -0.4395,0.30274 -0.5815,0.55 -1.369,2.6875 -1.748,4.75 -0.4589,2.49709 -0.3181,3.75 0.4219,3.75 0.6112,0 1.117,-1.0125 1.125,-2.25 0.01,-1.2375 0.2944,-3.375 0.6367,-4.75 0.3231,-1.29804 0.3307,-1.87975 0,-1.80274 z m 0.8438,12.74805 c -0.061,-0.032 -0.1247,0.0641 -0.1875,0.30469 -0.2516,0.9625 -0.802,1.75 -1.2247,1.75 -0.4226,0 -1.3181,1.9125 -1.9902,4.25 -0.6721,2.3375 -1.4496,5.0375 -1.7266,6 -0.2769,0.9625 -0.1137,1.75 0.3633,1.75 1.4723,0 3.2676,-2.30675 3.2676,-4.19922 0,-0.99 0.45,-1.80078 1,-1.80078 0.55,0 0.9486,-2.1375 0.8848,-4.75 -0.048,-1.95937 -0.2051,-3.20859 -0.3867,-3.30469 z m -213.836,6.05469 c -1.6999,0 -0.3665,4.10398 2.2403,6.89453 3.3437,3.57964 4.0976,3.81575 4.0976,1.28515 0,-1.75122 -4.9808,-8.17968 -6.3379,-8.17968 z m 105.334,0.041 c -2.1434,-0.0417 -4.2821,0.62179 -5.4746,1.93945 -1.3219,1.46071 -1.6535,2.99406 -1.2676,5.8711 0.2874,2.14227 0.1302,4.51587 -0.3496,5.27344 -0.5862,0.92544 -0.8784,0.13103 -0.8887,-2.42188 -0.01,-2.08981 -0.7089,-5.14198 -1.5566,-6.78125 -1.3506,-2.61185 -1.7217,-2.79978 -3,-1.52148 -0.8023,0.8023 -1.459,1.96809 -1.459,2.58984 0,0.62171 -0.4173,0.87208 -0.9277,0.55664 -0.5104,-0.31545 -1.2271,0.37025 -1.5938,1.52539 -1.2343,3.88915 -6.5761,11.62583 -9.539,13.81641 -2.8058,2.07437 -3.8595,4.11326 -2.127,4.11328 0.4463,0 1.7763,-0.90002 2.957,-2 2.3398,-2.17983 3.752,-2.65286 2.6641,-0.89258 -0.4701,0.76057 0.06,0.87635 1.6914,0.36914 3.5924,-1.11667 7.6799,-4.2874 8.3828,-6.50195 0.3446,-1.08571 1.0215,-1.97463 1.502,-1.97461 1.6674,0 1.9209,1.72383 0.7226,4.89844 -1.003,2.65734 -0.9562,3.34845 0.2813,4.13086 0.8174,0.51683 1.1227,0.94707 0.6777,0.95507 -0.4449,0.008 -0.5313,0.46562 -0.1914,1.01563 1.0994,1.77889 2.2908,1.07624 4.6543,-2.74805 2.7384,-4.43084 3.3107,-9.64436 1.2813,-11.67383 -1.1967,-1.19662 -1.234,-1.94152 -0.2129,-4.26367 1.5068,-3.42676 2.6016,-4.27893 5.5273,-4.29883 2.6172,-0.0178 2.9009,1.19909 0.7051,3.02149 -1.1102,0.92137 -1.3475,2.15144 -0.8477,4.37304 0.882,3.92001 0.84,8.58471 -0.096,10.83985 -0.9848,2.37358 1.14,2.26884 2.418,-0.11914 0.55,-1.02768 0.7058,-2.16329 0.3457,-2.52344 -1.0328,-1.03276 -0.2363,-10.69158 1.0566,-12.8125 0.9623,-1.57859 0.8256,-2.17002 -0.7734,-3.35547 -1.2265,-0.90931 -2.8954,-1.36792 -4.5625,-1.40039 z m 17.166,19.0625 c -1.2277,-0.0124 -3.4028,2.69901 -2.7207,3.80274 0.3726,0.60278 1.176,1.0957 1.7852,1.0957 0.6092,-3e-5 0.8111,-0.29631 0.4492,-0.6582 -0.3619,-0.3619 -0.1471,-1.27204 0.4766,-2.02344 0.6235,-0.75139 0.8332,-1.66672 0.4667,-2.03321 -0.1256,-0.1256 -0.2816,-0.18182 -0.457,-0.18359 z m 22.0547,0.94336 c -0.7271,0 -1.1102,0.31844 -0.7168,0.95508 0.3399,0.54998 1.6036,0.99237 2.8086,0.98437 1.7812,-0.0125 1.9109,-0.19628 0.6914,-0.98437 -0.9851,-0.63663 -2.0561,-0.95508 -2.7832,-0.95508 z m 5.082,2.7168 c -0.1896,0.0223 -0.2988,0.10884 -0.2988,0.27343 0,0.42981 1.4625,1.68401 3.25,2.78907 4.0172,2.4835 3.7577,2.41947 3.7188,0.92578 -0.03,-1.1685 -5.3425,-4.14457 -6.67,-3.98828 z m 59.7012,1.23828 c -0.55,0 -1,0.44999 -1,1 0,0.54998 0.45,0.99997 1,1 0.55,0 1,-0.45 1,-1 0,-0.55004 -0.45,-1.00003 -1,-1 z m -10.6543,0.63867 c -2.9691,0.1228 -11.3457,4.21765 -11.3457,5.89063 0,2.02514 0.9706,1.85273 5.0176,-0.88868 1.9152,-1.29734 4.5411,-2.69232 5.834,-3.09961 1.4917,-0.46995 2.002,-1.08785 1.3965,-1.69336 -0.1633,-0.16325 -0.4782,-0.22653 -0.9024,-0.20898 z m -80.9531,0.29102 c -0.9104,0.0814 -1.7468,0.71235 -2.084,2.00195 -0.3006,1.14953 -1.6185,2.35889 -2.9277,2.6875 -2.7181,0.68219 -2.9073,1.83607 -0.8809,5.38086 1.8573,3.24916 1.8646,5 0.02,5 -0.8145,0 -1.739,-1.02955 -2.0547,-2.28711 -0.3155,-1.25757 -1.5621,-2.72007 -2.7695,-3.25 -1.2073,-0.52994 -2.6444,-1.98673 -3.1933,-3.23828 -1.5356,-3.50073 -3.8351,-2.24625 -4.7969,2.61719 -0.4706,2.37957 -2.184,6.42268 -3.8086,8.98437 -2.3847,3.76026 -2.6962,4.85218 -1.6133,5.66602 2.5377,1.90711 2.7541,4.63611 0.7305,9.21093 -1.0983,2.48273 -1.8167,4.80658 -1.5957,5.16407 0.2209,0.35749 0.049,2.58334 -0.3828,4.94531 -0.6185,3.38197 -0.4403,4.63984 0.8398,5.91992 1.5006,1.50065 1.6508,1.495 1.9492,-0.0547 0.4423,-2.29587 0.9207,-2.13523 3.7774,1.25977 1.3592,1.61537 3.6928,3.12239 5.1855,3.34961 1.4928,0.22722 2.9785,0.4801 3.3027,0.5625 1.3405,0.34067 2.6209,-4.78378 2.8184,-11.2832 0.1568,-5.1601 0.6416,-7.26 1.9004,-8.2168 2.0237,-1.5382 5.1914,-1.75172 5.1914,-0.34961 0,0.55 -0.397,1 -0.8828,1 -1.4686,0 -1.9947,3.83189 -0.5996,4.36719 0.7123,0.27334 1.5899,1.98979 1.9512,3.81445 1.1582,5.85042 2.7009,8.81836 4.5839,8.81836 2.3259,0 8.8509,-4.14386 8.9063,-5.65625 0.024,-0.65837 0.9023,-0.93058 2.041,-0.63281 1.7682,0.46242 2,0.0297 2,-3.72657 0,-2.58869 -0.832,-5.59306 -2.1289,-7.6914 -1.8688,-3.02375 -1.9658,-3.74707 -0.8008,-5.92383 1.1891,-2.22191 1.0029,-3.12168 -1.8027,-8.67383 -1.7218,-3.40726 -3.4595,-7.53054 -3.8613,-9.16211 -0.4019,-1.63158 -1.5579,-3.85287 -2.5684,-4.9375 -1.8194,-1.95279 -1.8379,-1.94767 -1.8379,0.50391 0,1.75888 -0.5791,2.51797 -2,2.625 -2.2592,0.17017 -2.7075,-1.2384 -0.6465,-2.0293 0.7437,-0.28537 1.3062,-1.79645 1.25,-3.35742 -0.074,-2.0461 -1.4618,-3.30119 -2.8183,-3.4082 -0.1319,-0.0104 -0.2626,-0.0116 -0.3926,0 z m 97.8359,2.06836 0,0.002 c -0.4249,0 -1.6215,1.57498 -2.6582,3.5 -1.0367,1.92498 -2.4131,3.49997 -3.0586,3.5 -0.6454,0 -1.7169,1.01249 -2.3808,2.25 -1.4026,2.61422 -6.4336,5.34191 -6.9571,3.77148 -0.4317,-1.29507 -5.1738,-1.35255 -5.1738,-0.0625 0,0.52858 -0.9582,1.85273 -2.1289,2.94336 -1.2235,1.13982 -1.8766,2.63874 -1.5371,3.52344 0.6482,1.68908 3.2314,1.15049 3.9922,-0.83203 0.2637,-0.6872 2.6595,-2.07458 5.3262,-3.08399 6.546,-2.47837 11.0877,-6.08072 13.414,-10.64062 2.137,-4.18889 2.3002,-4.87109 1.1621,-4.87109 z m -56.5781,0.40039 c -0.1062,-0.0145 -0.2151,-0.0146 -0.3223,0.002 -0.1429,0.0219 -0.2838,0.0718 -0.414,0.15234 -0.521,0.32197 -0.6833,1.01224 -0.3614,1.53321 0.322,0.52097 1.0123,0.6833 1.5332,0.36132 0.521,-0.32197 0.6834,-1.01223 0.3614,-1.5332 -0.1811,-0.29305 -0.4784,-0.47195 -0.7969,-0.51562 z m -106.4688,13.66406 0,0.002 c -0.7197,0.074 -1.1816,0.50142 -1.1816,1.26172 0,0.9054 -0.9528,1.18718 -3,0.88672 -1.8008,-0.26431 -3,0.005 -3,0.67383 0,0.65304 -1.8609,1.11328 -4.5,1.11328 -3.173,0 -4.5,0.40946 -4.5,1.38867 0,0.79268 -1.487,1.66802 -3.4648,2.03906 -5.2187,0.97903 -5.5162,2.72158 -0.3575,2.0918 l 4.3223,-0.52734 -5.25,1.63086 c -2.8875,0.89777 -5.25,2.07292 -5.25,2.61132 0,0.53841 0.7875,0.66894 1.75,0.28907 0.9625,-0.37985 4.6473,-1.41353 8.1875,-2.29688 4.8321,-1.2057 6.5343,-1.30917 6.832,-0.41601 0.2182,0.65438 1.4853,1.18945 2.8145,1.18945 1.3292,0 2.416,0.44999 2.416,1 0,0.55 -1.8,1 -4,1 -2.2,0 -4,0.44999 -4,1 0,0.55 0.5548,1 1.2324,1 0.6777,0 -0.5598,1.23125 -2.75,2.73633 -3.1441,2.16055 -5.1399,2.7393 -9.4824,2.75 -4.6793,0.0115 -5.4551,0.2748 -5.2051,1.76367 0.463,2.75754 -1.507,2.04442 -3.4531,-1.25 -2.4888,-4.21318 -4.565,-4.15331 -2.3066,0.0664 1.4579,2.72421 0.064,2.40106 -3.2188,-0.74415 -3.517,-3.36954 -4.5547,-2.57128 -1.6582,1.27539 1.6389,2.17654 1.1418,1.91331 -1.9863,-1.05078 -2.2944,-2.17412 -4.1719,-3.44736 -4.1719,-2.83007 0,1.87186 10.2047,12.41887 11.5254,11.91211 0.6773,-0.25991 1.7281,0.025 2.3359,0.63281 1.9361,1.9361 2.5365,-0.16525 0.6446,-2.25586 -2.4553,-2.71304 -0.9058,-2.54728 2.2832,0.24414 7.4607,6.53063 9.8915,9.75382 12.6543,16.7832 4.1668,10.60173 5.9035,12.41923 7.1445,7.47461 l 0.625,-2.49219 2.7988,1.99219 c 1.5389,1.09575 3.29,1.99219 3.8926,1.99219 1.4473,0 1.3848,0.92916 -0.4043,6 -0.825,2.3383 -1.5,4.44724 -1.5,4.68555 0,0.23831 0.45,0.15435 1,-0.18555 0.55,-0.33993 1,-1.43536 1,-2.43555 0,-1.0002 0.7109,-2.40946 1.5801,-3.13086 0.9488,-0.78748 1.3986,-2.27118 1.123,-3.71289 -0.5204,-2.72218 1.063,-8.97179 2.8438,-11.2207 0.6533,-0.82501 1.1774,-2.17501 1.164,-3 -0.013,-0.825 0.3008,-2.51251 0.6993,-3.75 1.1358,-3.5272 -1.0719,-2.65787 -2.3164,0.91211 -0.6064,1.73918 -0.8909,3.3728 -0.6329,3.63086 0.2581,0.25806 -0.1905,1.41041 -0.9961,2.56054 -0.8054,1.15013 -1.4648,3.39722 -1.4648,4.99219 0,2.34538 -0.2624,2.68152 -1.373,1.75977 -0.7553,-0.62683 -2.1694,-0.8344 -3.1426,-0.46094 -1.5927,0.61117 -1.7188,0.14412 -1.2559,-4.67383 0.4001,-4.16317 1.0984,-5.85492 3.1426,-7.61328 2.8366,-2.43994 3.3199,-3.95979 1.4531,-4.58203 -2.2102,-0.73673 0.1254,-2.51199 4.1543,-3.15625 2.6063,-0.41675 4.0215,-1.16655 4.0215,-2.13086 0,-0.8185 -0.3375,-1.37579 -0.75,-1.23828 -0.4125,0.13749 -1.6608,-0.65001 -2.7754,-1.75 -1.1146,-1.10001 -3.5077,-3.23313 -5.3164,-4.74024 -3.5859,-2.98799 -3.3469,-5.27556 0.4512,-4.32226 1.7353,0.43552 2.3906,0.18453 2.3906,-0.91797 0,-1.58908 1.1795,-2.00611 2.3535,-0.83203 1.3229,1.32283 4.6465,0.98199 4.6465,-0.47656 0,-1.18021 0.2835,-1.22052 1.5,-0.21094 1.1178,0.92766 1.5,0.94297 1.5,0.0625 0,-0.64981 0.5163,-0.86411 1.1465,-0.47461 0.8042,0.49705 0.9741,-0.15655 0.5683,-2.19141 l -0.5781,-2.89843 1.125,2.75 c 1.6951,4.14262 3.0792,3.32185 2.4395,-1.44727 -0.3664,-2.7317 -0.2446,-3.69223 0.3515,-2.75 0.5039,0.79642 0.9237,2.2609 0.9317,3.25586 0.01,0.99496 0.4676,1.53055 1.0195,1.18945 1.1774,-0.72768 0.3718,-6.33994 -1.1777,-8.20703 -0.5893,-0.70999 -1.7453,-1.29105 -2.5703,-1.29101 -1.22,0 -1.2684,0.28004 -0.2559,1.5 1.4617,1.76123 1.0443,1.84809 -2.4707,0.51171 -2.0562,-0.78176 -2.7242,-0.66584 -3.1934,0.55665 -0.3272,0.85268 -1.2489,1.29552 -2.0546,0.98632 -0.8037,-0.3084 -1.9754,-0.24372 -2.6036,0.14453 -1.291,0.7979 -1.4059,0.8148 -11.6777,1.67383 -5.0674,0.42379 -7.0135,0.30788 -6,-0.35742 0.825,-0.54158 3.3,-0.99883 5.5,-1.01562 2.9545,-0.0226 3.6079,-0.284 2.5,-1 -1.113,-0.7193 -0.5133,-0.97298 2.3223,-0.98438 4.425,-0.0177 7.9493,-2.59818 5.5898,-4.0918 -1.0332,-0.65405 -2.0107,-0.93337 -2.7305,-0.85937 z m 114.5567,14.17969 c -0.2135,0.0492 -0.4179,0.40624 -0.5371,1.00781 -0.1908,0.96249 -0.9804,1.75 -1.7539,1.75 -0.7735,-1e-5 -2.333,1.81447 -3.4649,4.0332 -3.0064,5.89305 -4.0526,8.9668 -3.0547,8.9668 0.4826,0 1.3467,-1.35 1.9219,-3 0.5752,-1.65 1.2842,-3 1.5742,-3 0.29,-1e-5 0.089,1.15364 -0.4472,2.56445 -0.5364,1.4108 -0.9675,3.3233 -0.9571,4.25 0.01,0.92669 1.7379,-2.13945 3.8399,-6.81445 2.102,-4.67501 3.5679,-8.95 3.2558,-9.5 -0.117,-0.20626 -0.2488,-0.28733 -0.3769,-0.25781 z m 3.1758,0.85937 c -0.3322,-0.0699 -1.7473,2.54361 -3.4258,6.38867 -1.9183,4.39435 -3.4883,8.10685 -3.4883,8.25 0,0.14315 0.398,0.25977 0.8848,0.25977 1.3248,0 4.2879,-4.9128 3.6172,-5.99805 -0.3204,-0.51831 0.1095,-2.28303 0.957,-3.92187 0.8475,-1.63884 1.5363,-3.79144 1.5293,-4.78125 -9e-4,-0.12372 -0.027,-0.18729 -0.074,-0.19727 z m 2.1855,2.39844 -2.0488,2.36133 c -1.1272,1.29844 -2.0508,2.76094 -2.0508,3.25 0,1.74819 0.9735,0.83671 2.5234,-2.36133 l 1.5762,-3.25 z m -57.1406,8.49414 c -0.2731,0.0177 -0.6082,0.25465 -1.0313,0.67773 -0.5739,0.57394 -0.736,2.24119 -0.3632,3.72657 0.8925,3.55634 3.0322,2.74076 2.5879,-0.98633 -0.2904,-2.43502 -0.5926,-3.45683 -1.1934,-3.41797 z m 55.8418,0.20312 c -0.7657,0.23533 -3.7517,4.16708 -3.7774,5.1875 -0.012,0.48667 0.8766,-0.25978 1.9766,-1.6582 1.1,-1.39842 1.9907,-2.92151 1.9785,-3.38476 0,-0.13651 -0.068,-0.17816 -0.1777,-0.14454 z m -104.9824,2.32032 c -1.1254,0.0381 -2.3188,0.4857 -2.5938,1.31054 -0.2312,0.69359 0.6637,1.17188 2.1934,1.17188 1.4856,-1e-5 2.582,-0.56549 2.582,-1.33203 0,-0.81553 -1.0563,-1.18845 -2.1816,-1.15039 z m 86.2402,2.48242 c -1.261,-1e-5 -2.1642,1.5624 -1.3652,2.36133 1.1262,1.12618 2.3066,0.68508 2.3066,-0.86133 0,-0.825 -0.4239,-1.5 -0.9414,-1.5 z m -75.4609,1.07812 c -0.3104,-0.014 -0.6082,-0.0108 -0.8965,0.01 -1.9223,0.13434 -3.4098,1.04229 -5.2012,2.91211 -2.7886,2.91064 -2.1303,3.94282 1.332,2.08984 0.9351,-0.50041 3.4622,-1.08124 5.6153,-1.29101 4.4406,-0.43263 5.7797,-2.23779 2.3437,-3.15821 -1.2203,-0.32689 -2.2622,-0.52053 -3.1933,-0.5625 z m 51.1699,4.375 c -0.3667,-0.007 -0.8414,0.19459 -1.4024,0.66016 -3.8729,3.21426 -5.4157,6.71998 -4.7597,10.82227 0.3574,2.2355 0.8014,4.06441 0.9863,4.06445 0.5717,0 5.4082,-7.41464 5.4082,-8.29102 0,-0.45479 -0.45,-0.54891 -1,-0.20898 -1.4481,0.895 -1.2299,-0.2189 0.5859,-2.99024 1.4108,-2.15308 1.2818,-4.03619 0.1817,-4.05664 z m -13.166,3.14649 c -0.051,-0.0118 -0.099,-0.0106 -0.1407,0.002 -0.4322,0.12882 -0.3637,1.5244 0.5039,3.80664 0.5672,1.49141 1.4467,2.45557 1.9532,2.14258 0.5199,-0.32131 0.2246,-1.96272 -0.6778,-3.77148 -0.703,-1.40928 -1.28,-2.09706 -1.6386,-2.17969 z m -13.4668,1.55859 c -0.6887,-0.0142 -1.1348,0.0704 -1.1348,0.29102 0,0.19469 1.4625,1.2908 3.25,2.43554 4.9699,3.1828 9.259,2.44262 5.2285,-0.90234 -1.0194,-0.84606 -5.2776,-1.7816 -7.3437,-1.82422 z m -16.0899,0.22461 c -4.3955,0.2503 -17.2787,8.37398 -19.4179,12.66211 -1.0613,2.1273 -1.1649,2.97309 -0.334,2.70899 0.6643,-0.21121 1.6519,-1.36729 2.1953,-2.57032 0.5434,-1.20302 3.4684,-3.42415 6.5,-4.93554 3.0316,-1.5114 5.8727,-3.31059 6.3125,-3.99805 0.4398,-0.6875 2.1273,-1.25 3.75,-1.25 2.8305,-1e-5 3.9197,-1.28116 2.0644,-2.42774 -0.2517,-0.15559 -0.6156,-0.21535 -1.0703,-0.18945 z m 26.5899,1.03516 c -0.3705,0.0733 -0.6348,0.65639 -0.6348,1.52344 0,1.13245 0.45,2.05859 1,2.05859 0.55,-1e-5 1,-0.64887 1,-1.44141 0,-0.79254 -0.45,-1.71867 -1,-2.05859 -0.069,-0.0425 -0.1362,-0.0694 -0.2012,-0.082 -0.057,-0.011 -0.1111,-0.0105 -0.164,0 z m 54.6484,2.07422 c -0.1724,-3.8e-4 -0.3301,0.0383 -0.4609,0.11914 -0.5544,0.34259 -0.3548,1.27693 0.4785,2.23828 0.7869,0.90789 1.7287,2.9064 2.0937,4.4414 0.365,1.53499 1.0692,2.54124 1.5625,2.23633 1.0449,-0.64578 -0.3016,-6.03391 -2.0273,-8.11328 -0.4766,-0.5742 -1.1292,-0.92075 -1.6465,-0.92187 z m -60.1914,3.50781 c -0.6692,-1e-5 -6.0918,10.10287 -6.0918,11.34961 0,0.35755 0.45,0.65039 1,0.65039 0.55,0 1,-0.64371 1,-1.43164 0,-0.78794 0.7881,-1.68432 1.752,-1.99024 2.4657,-0.78259 4.2221,-3.96272 3.5683,-6.46289 -0.3042,-1.16338 -0.8575,-2.11523 -1.2285,-2.11523 z m 66.7754,0 c -0.825,-1e-5 0.085,7.59205 1.3047,10.88867 0.4863,1.31378 1.0752,2.19817 1.3086,1.96484 0.644,-0.64398 -1.8384,-12.85355 -2.6133,-12.85351 z m -152.4219,6.54101 c -0.3882,-0.0578 -0.4453,0.65302 -0.4453,2.4004 0,1.69675 0.5625,3.99692 1.25,5.10937 1.1588,1.87513 1.2722,1.76259 1.5606,-1.52539 0.1957,-2.23254 -0.2674,-4.12481 -1.25,-5.10742 -0.5305,-0.53049 -0.8823,-0.84228 -1.1153,-0.87696 z m 25.8848,0.45899 c -1.1537,-1e-5 -3.2671,3.50506 -3.2988,5.47265 -0.032,1.96335 -0.025,1.96335 1.3027,0 1.7062,-2.52314 2.7824,-5.47269 1.9961,-5.47265 z m 121.6699,0 c -0.55,0 -1,0.44998 -1,1 0,0.55 0.45,1 1,1 0.55,0 1,-0.45 1,-1 0,-0.55001 -0.45,-1 -1,-1 z m -22,2 c -2.8671,0 -3.7656,0.90043 -2.332,2.33398 1.309,1.30903 5.332,0.67958 5.332,-0.83398 0,-1 -1,-1.5 -3,-1.5 z m 9.7832,1 c -1.4871,0 -1.8955,2.57204 -0.8476,5.32812 0.9493,2.49703 2.9511,3.45317 4.3339,2.07032 0.7674,-0.76734 -2.3575,-7.39844 -3.4863,-7.39844 z m -96.8652,0.12305 c -0.3474,-0.0143 -0.7446,0.0489 -1.1055,0.19336 -0.7977,0.3192 -0.5595,0.55746 0.6055,0.60546 1.0541,0.0434 1.6447,-0.1931 1.3125,-0.52539 -0.1662,-0.16613 -0.4651,-0.25913 -0.8125,-0.27343 z m 106.6738,0.24023 c -0.8012,-0.002 -1.5611,0.87616 -1.0488,1.70508 0.3164,0.51199 0.9981,0.93162 1.5156,0.93164 1.0751,0 1.2535,-1.35585 0.3027,-2.30664 -0.2308,-0.23085 -0.5024,-0.32938 -0.7695,-0.33008 z m -104.0918,1.63672 c -0.825,0 -1.5,0.82565 -1.5,1.83398 0,1.00834 -0.3308,2.16485 -0.7363,2.57032 -0.7642,0.76423 -0.8566,1.24496 -1.1113,5.8457 -0.1925,3.47269 -1.256,3.45933 -5.3672,-0.0684 -3.8375,-3.2927 -9.2084,-5.65583 -10.7246,-4.71875 -0.5832,0.36043 -1.0606,1.49395 -1.0606,2.51953 0,2.83389 2.2596,12.01754 2.957,12.01758 0.3377,0 0.6153,-2.45432 0.6153,-5.45313 0,-6.04246 0.3879,-6.88282 2.7597,-5.97265 1.4621,0.56103 1.4736,0.90286 0.1114,3.53711 -2.2223,4.29736 -0.9718,12.3273 2.3242,14.91992 1.376,1.08234 2.917,1.96875 3.4238,1.96875 0.5068,0 2.1337,1.2564 3.6152,2.79101 1.4815,1.53462 4.0434,3.43427 5.6934,4.22266 1.65,0.78838 4.1058,2.25754 5.457,3.26563 3.6696,2.73772 8.9786,0.95642 9.0274,-3.0293 0.018,-1.44603 -1.6558,-1.69843 -2.1504,-0.32422 -0.1833,0.50934 -1.5715,1.23409 -3.084,1.60937 -2.1901,0.54344 -2.75,0.33598 -2.75,-1.01953 0,-0.93612 -0.9,-1.9389 -2,-2.22656 -1.4032,-0.36694 -2,-1.36258 -2,-3.33984 0,-3.98292 1.6943,-7.94924 3.3945,-7.94922 1.088,0 1.4299,-1.35213 1.3926,-5.5 -0.053,-5.93047 -1.4624,-7.37525 -2.4375,-2.5 -0.7193,3.59654 -1.0569,3.63374 -4.5996,0.51562 -3.0612,-2.69436 -3.3711,-4.8051 -1.25,-8.51562 1.9048,-3.33213 1.9048,-7.00002 0,-7 z m 116.6191,2.12305 c -0.5646,-0.0317 -1.26,0.61559 -2.7324,2.07031 -2.2971,2.26957 -2.5229,2.93744 -1.4336,4.25 1.8278,2.20233 3.5703,1.9341 5.3789,-0.82617 1.3429,-2.04947 1.3662,-2.64365 0.17,-4.25 -0.5844,-0.78469 -0.9437,-1.21946 -1.3829,-1.24414 z m -53.5625,0.87695 c -1.3915,0 -4.5566,3.62776 -4.5566,5.22265 0,1.32755 1.1239,0.86664 3.5918,-1.47265 2.7267,-2.58463 3.0265,-3.75 0.9648,-3.75 z m 6.4981,0.006 c -0.6519,-0.0115 -1.0547,0.28815 -1.0547,0.93945 0,0.51999 1.2375,1.59786 2.75,2.39453 4.4761,2.35767 6.0772,1.88426 2.9453,-0.87109 -1.7728,-1.55962 -3.5541,-2.44366 -4.6406,-2.46289 z m -63.7324,0.0176 c -0.3936,-0.0245 -0.7518,0.0721 -1.0078,0.32812 -0.3297,0.32965 -0.03,1.28671 0.666,2.125 1.6223,1.95495 3.0195,1.95121 3.0195,-0.008 0,-1.20906 -1.4971,-2.37191 -2.6777,-2.44531 z m 31.7832,0.49804 c -0.1598,-0.0127 -0.3387,0.0144 -0.5352,0.0898 -1.4097,0.54095 -3.5703,5.40411 -3.5703,8.03711 0,2.55512 1.8424,1.34832 2.4981,-1.63672 0.361,-1.6437 1.0723,-3.24483 1.58,-3.5586 1.3238,-0.81813 1.1457,-2.84273 0.027,-2.93164 z m 12.4453,2.47852 c -1.6047,-10e-6 -0.1481,2.06398 2.6992,3.82422 4.0103,2.47923 4.8547,2.61141 4.0977,0.63867 -0.5152,-1.34254 -5.2672,-4.46289 -6.7969,-4.46289 z m -37.0899,0.0957 c -1.3652,-0.0657 -2.4532,0.44273 -2.8769,1.54688 -0.8605,2.24231 0.048,2.90711 1.8867,1.38086 1.2374,-1.02696 1.9965,-0.94782 4.0899,0.42382 2.0179,1.3222 2.4558,2.26148 2.039,4.36915 -2.1644,10.9451 -2.2228,10.74807 4.7598,15.93359 3.4548,2.56567 3.6073,2.59287 7.0469,1.28515 2.0528,-0.7805 2.5127,-1.5933 2.4121,-4.26953 -0.068,-1.81831 0.443,-5.02493 1.1367,-7.12695 1.3363,-4.04907 0.914,-5.00035 -2.7051,-6.09375 -2.2565,-0.68176 -3.1798,0.76237 -1.25,1.95508 1.4417,0.89103 1.2977,13.5 -0.1543,13.5 -0.6351,0 -3.3167,-1.0125 -5.959,-2.25 -4.1681,-1.95209 -4.8101,-2.65277 -4.8457,-5.28906 -0.023,-1.67121 0.859,-4.80338 1.959,-6.96094 2.362,-4.63296 2.339,-4.49319 0.75,-4.52149 -0.6875,-0.0122 -2.375,-0.90299 -3.75,-1.97851 -1.5319,-1.19826 -3.1738,-1.83861 -4.5391,-1.9043 z m 95.7832,3.02539 c -0.3644,0.0144 -0.893,0.40828 -1.6543,1.11914 -0.9835,0.91909 -1.0623,1.82433 -0.2988,3.5 1.5081,3.30989 2.709,2.75982 2.709,-1.24023 0,-2.37351 -0.1484,-3.40296 -0.7559,-3.37891 z m -34.1875,0.875 c -0.907,0.0263 -0.7445,1.00419 0.5235,2.81446 0.8435,1.20432 1.9155,2.18941 2.3828,2.18945 1.3473,0 -0.089,-4.11194 -1.6445,-4.70899 -0.539,-0.20681 -0.9594,-0.30368 -1.2618,-0.29492 z m 28.459,2.22656 c -0.2872,0.0501 -0.6391,0.59596 -1.0097,1.76368 -0.6549,2.06344 -2.5059,2.81181 -2.5059,1.01367 0,-0.55 -0.675,-1 -1.5,-1 -1.9796,-10e-6 -1.8948,0.63542 0.5371,4.05078 1.1201,1.57308 2.514,4.22998 3.0977,5.9043 1.233,3.53701 2.3277,4.09627 1.5566,0.79492 -0.289,-1.2375 -0.1819,-4.40307 0.2383,-7.03516 0.5295,-3.31692 0.2178,-5.60232 -0.4141,-5.49219 z m 21.4551,1.35157 c -0.4496,0.0679 -1.1122,0.60825 -1.6875,1.42969 -0.768,1.09649 -2.4458,1.99609 -3.7285,1.99609 -1.5866,0 -2.2879,0.54546 -2.1934,1.70703 0.1833,2.25363 -5.2631,5.06719 -6.3632,3.28711 -0.5591,-0.90453 -1.3472,-0.64308 -2.9727,0.98242 -1.764,1.76395 -2.0839,2.89861 -1.5742,5.61524 1.0374,5.52999 3.2215,3.9908 2.707,-1.90821 -0.1228,-1.4079 0.4395,-1.74526 2.4981,-1.5 2.0884,0.24882 2.9524,1.17096 4.041,4.31641 1.9237,5.55888 1.0968,8.1737 -2.6172,8.2793 -1.9777,0.0562 -3.1075,-0.47396 -3.4043,-1.59766 -0.3434,-1.30018 -0.4689,-1.21606 -0.5586,0.36914 -0.064,1.1275 0.424,2.59 1.084,3.25 1.4317,1.43177 2.4783,1.52394 3.2402,0.29102 0.308,-0.49837 1.5199,-0.65403 2.6914,-0.34766 2.0401,0.5335 2.1066,0.30785 1.5586,-5.34375 -0.3147,-3.24551 -0.8765,-7.13791 -1.248,-8.65039 -0.5765,-2.34661 -0.3647,-2.75 1.4414,-2.75 1.9379,0 2.1224,0.56981 2.2011,6.75 0.073,5.7122 0.2286,6.28875 1.0137,3.75 0.9705,-3.13838 0.3222,-9.7564 -1.25,-12.75 -0.5364,-1.02144 -0.5459,-1.75 -0.021,-1.75 1.1789,0 4.166,7.8743 4.1856,11.0332 0.012,1.95959 0.2143,2.15848 0.9844,0.9668 1.0841,-1.67759 1.371,-16.29513 0.3398,-17.32617 -0.091,-0.0904 -0.2164,-0.12134 -0.3652,-0.0996 l 0,0 z m -30.9414,2.3457 c -0.093,-0.008 -0.1945,-0.006 -0.3047,0.006 -0.3987,0.0412 -2.2996,0.0742 -4.2246,0.0742 -4.1475,0 -4.3807,1.02945 -1,4.41015 1.375,1.375 2.5,3.19493 2.5,4.04493 0,0.85 0.2839,1.54492 0.6309,1.54492 0.347,0 0.3819,-1.53216 0.078,-3.4043 -0.4596,-2.83203 -0.2118,-3.49259 1.4746,-3.93359 1.7076,-0.44654 2.2389,-2.62232 0.8457,-2.74219 z m -54.7246,0.33789 0,0.002 c -0.2256,-0.001 -0.3047,0.24055 -0.3047,0.72461 0,0.67568 1.125,2.11374 2.5,3.19532 2.0558,1.61705 2.5,2.83188 2.5,6.83984 l 0,4.87305 -4.25,-0.47461 c -2.3375,-0.26127 -5.6,-0.0918 -7.25,0.375 -2.5812,0.73017 -3.079,1.43693 -3.5723,5.07226 -0.6811,5.02028 -4.4215,9.55709 -5.9062,7.16407 -1.1403,-1.83788 -2.4821,-0.67042 -1.668,1.45117 0.8369,2.18082 3.6819,3.08226 4.6719,1.48047 0.6791,-1.09877 1.1413,-1.08132 2.6484,0.10351 1.0045,0.78964 2.4142,2.22305 3.1328,3.18555 1.5038,2.01389 7.0462,2.37481 7.6778,0.5 0.9959,-2.95615 0.9356,-5.07017 -0.1563,-5.45313 -0.6451,-0.22626 -1.3201,0.59029 -1.5,1.81641 -0.4497,3.0648 -2.0076,3.32004 -5.1582,0.8418 -3.1419,-2.47144 -3.41,-5.79545 -0.8925,-11.0586 1.6395,-3.42806 1.8857,-3.5616 5.0429,-2.70507 3.0058,0.81542 3.26,1.1714 2.6914,3.75976 -0.3827,1.74256 -0.1725,3.14105 0.541,3.58203 1.5268,0.94357 2.7962,-1.11762 3.5821,-5.81836 0.563,-3.36764 0.8093,-3.63053 2.248,-2.40039 0.8892,0.76029 2.3403,1.63594 3.2246,1.94727 1.807,0.63618 2.8926,4.87835 2.8926,11.30469 0,2.37378 0.4071,4.56771 0.9043,4.875 0.4972,0.30727 0.922,-1.70146 0.9434,-4.4629 0.021,-2.76144 0.6055,-6.58852 1.2988,-8.50586 1.1931,-3.29932 1.4504,-3.45141 4.7832,-2.82617 4.8617,0.91206 5.7177,2.08343 6.2539,8.54883 0.2564,3.09144 1.2299,6.78723 2.1641,8.21289 2.4261,3.7027 8.0209,3.67225 9.9726,-0.0527 0.8851,-1.68926 1.6404,-2.23046 2.0918,-1.5 0.9119,1.47549 5.5879,1.49179 5.5879,0.0195 0,-0.78269 0.3784,-0.8087 1.25,-0.0879 1.7947,1.48424 6.5687,0.30832 8.1992,-2.01953 0.7652,-1.09248 1.8464,-1.70492 2.4024,-1.36133 0.5559,0.3436 1.3116,0.13657 1.6797,-0.45899 1.1877,-1.92181 -0.3283,-2.19757 -3.4688,-0.63085 -3.0593,1.52616 -3.0625,1.52553 -3.0625,-1.33594 0,-1.57538 -0.5186,-3.18447 -1.1523,-3.57617 -0.8346,-0.51581 -0.9735,0.40548 -0.5039,3.34179 l 0.6484,4.05469 -3.6777,-0.10547 c -2.0231,-0.0573 -3.8438,0.39068 -4.045,0.99414 -0.2011,0.60342 -1.2427,0.8667 -2.3164,0.58594 -1.6284,-0.42584 -1.9531,-1.39604 -1.9531,-5.84766 0,-6.22734 1.708,-10.75608 3.7598,-9.96875 0.772,0.29625 2.2143,0.53903 3.205,0.53907 0.991,0 2.0495,0.94456 2.3516,2.0996 0.3025,1.15669 1.0295,1.80463 1.6172,1.44141 1.1979,-0.74036 1.4859,-7.56595 0.3164,-7.49805 -0.4125,0.024 -2.6961,0.42088 -5.0762,0.88086 -5.3772,1.03922 -5.9818,-0.0385 -4.3593,-7.77343 0.636,-3.03262 0.9828,-5.68708 0.7695,-5.90039 -0.9872,-0.98722 -4.5554,2.37237 -3.9805,3.74804 0.3453,0.82613 0.8123,3.5783 1.0371,6.11524 l 0.4082,4.61132 -4.8808,0.96485 -4.8828,0.9668 0.4062,-4.57813 c 0.9106,-10.26998 1.2038,-11.07814 4.0215,-11.07812 1.4417,0 2.3372,-0.28382 1.9902,-0.63086 -0.8824,-0.88237 -15.0945,-0.86412 -16.5273,0.0215 -0.6465,0.39956 -1.5339,0.50554 -1.9727,0.23438 -0.4387,-0.27118 -1.3534,-0.15134 -2.0312,0.26757 -0.9624,0.59481 -0.9168,1.36872 0.2031,3.52735 1.034,1.99293 1.181,3.64164 0.5293,5.91406 -0.4971,1.73343 -0.9043,3.25322 -0.9043,3.375 0,0.12178 -0.8579,0.68011 -1.9082,1.24219 -1.3851,0.74126 -2.9177,0.60067 -5.5801,-0.51172 -3.5997,-1.50406 -3.658,-1.61415 -2.9824,-5.73633 0.3789,-2.31174 1.315,-4.91294 2.0801,-5.78125 2.4911,-2.82712 1.7056,-4.07106 -2.1192,-3.35351 -2.2273,0.41784 -4.0553,0.20585 -5,-0.57813 -0.5867,-0.48679 -0.9599,-0.7294 -1.1855,-0.73047 z m -28.6231,7.26563 c -0.596,0.0732 -0.6816,0.73797 -0.6816,2.33203 0,1.54472 0.3253,3.13384 0.7227,3.53125 0.3974,0.3974 1.3289,-0.0888 2.0703,-1.08203 0.7414,-0.99324 1.7661,-1.69414 2.2773,-1.55664 0.5112,0.1375 0.9297,-0.49935 0.9297,-1.41602 0,-0.91666 -0.27,-1.396 -0.6016,-1.06445 -0.3315,0.33155 -1.6815,0.19267 -3,-0.3086 -0.8163,-0.31037 -1.3592,-0.47945 -1.7168,-0.43554 z m 125.0821,4.00781 c -1.4532,-0.004 -4.1579,2.3121 -6.2227,6.38672 -1.3974,2.75774 -2.541,5.25358 -2.541,5.54687 0,2.26716 7.5662,-4.00288 8.9961,-7.45508 1.2718,-3.07043 0.8978,-4.47562 -0.2324,-4.47851 z m -35.1485,0.84375 c -0.1125,0.003 -0.2395,0.0337 -0.3808,0.0879 -0.7691,0.29511 -2.7424,0.53711 -4.3867,0.53711 -2.6575,0 -2.8236,0.16666 -1.4903,1.5 0.825,0.825 1.9497,1.5 2.5,1.5 0.5503,0 1.5296,2.58749 2.1758,5.75 0.6462,3.1625 1.8735,6.5375 2.7266,7.5 1.8761,2.11691 1.647,2.10765 5.3222,0.20703 1.6407,-0.84842 2.7033,-1.99823 2.3594,-2.55469 -0.3959,-0.6406 -1.5004,-0.43883 -3.0078,0.54883 -2.2499,1.47418 -2.4695,1.42148 -4.0254,-0.95312 -1.224,-1.86816 -1.5352,-4.05819 -1.2109,-8.54102 0.3084,-4.2645 0.2056,-5.60444 -0.5821,-5.58203 z m -82.2441,1.30859 c -0.1002,0.0115 -0.2162,0.11779 -0.3477,0.31641 -0.5461,0.825 -0.9998,3.8625 -1.0078,6.75 -0.023,7.75891 1.6686,6.38591 1.8477,-1.5 0.088,-3.87252 -0.058,-5.61639 -0.4922,-5.56641 z m 40.457,21.63477 c -1.6725,-0.0676 -3.8281,0.68592 -3.8281,1.625 0,1.49479 2.7323,3.09531 4.2734,2.5039 0.8391,-0.32199 1.796,-0.14689 2.127,0.38868 0.7737,1.2519 5.7131,-0.9477 5.25,-2.33789 -0.1832,-0.55 -1.4176,-1 -2.7422,-1 -1.3246,-10e-6 -2.9736,-0.36646 -3.666,-0.81446 -0.3528,-0.22825 -0.8566,-0.34269 -1.4141,-0.36523 z m -12.3281,1.08398 c -4.9431,-0.10534 -5.7117,0.7055 -2.25,2.375 2.7553,1.32884 3.1742,1.37837 5.168,0.61328 3.1829,-1.22142 1.5506,-2.89308 -2.918,-2.98828 z m -41.4023,0.65625 c -0.1214,-0.0207 -0.2382,-0.0183 -0.3477,0.008 -0.1251,0.0295 -0.2405,0.0901 -0.3398,0.18945 -0.2514,0.25135 -0.173,1.19784 0.1738,2.10156 0.7777,2.02658 2.416,2.16269 2.416,0.20117 0,-1.14934 -1.0525,-2.35326 -1.9023,-2.49804 l 0,-0.002 z m 79.1562,3.96875 c -0.1908,0.0181 -0.207,0.53126 -0.2226,1.55469 -0.017,1.14584 0.27,2.38334 0.6367,2.75 0.9222,0.92219 2.332,0.83581 2.332,-0.14258 0,-0.44488 -0.6612,-1.68238 -1.4687,-2.75 -0.7213,-0.95357 -1.0866,-1.43019 -1.2774,-1.41211 z m -79.2012,1.10547 c -0.2835,-0.036 -0.5396,0.0201 -0.7187,0.19922 -0.2935,0.29349 -0.2375,1.01302 0.125,1.59961 0.8147,1.31822 2.541,1.40297 2.541,0.125 0,-0.8849 -1.0965,-1.81574 -1.9473,-1.92383 z m 75.8829,1.00195 c -0.6108,-1.9e-4 -1.0444,0.63114 -1.4336,1.85743 -0.5972,1.8813 -1.4136,1.97987 -14.5098,1.75 -10.0444,-0.17632 -14.2251,0.10114 -15.1348,1.00586 -0.6913,0.6875 -2.4292,1.25 -3.8613,1.25 -1.663,0 -3.8295,1.26464 -5.9961,3.5 -3.4366,3.5457 -6.7023,5.03987 -3.6543,1.67187 2.2325,-2.46692 2.3024,-4.95511 0.088,-3.11719 -1.946,1.61508 -4.4336,6.32685 -4.4336,8.39649 0,2.29902 0.6303,1.97318 5.4004,-2.79688 4.4085,-4.40848 7.6884,-5.51442 16.9902,-5.72461 2.6869,-0.0607 2.8371,-0.19364 1.1094,-0.97851 -1.4407,-0.65454 -0.5403,-0.83087 3.2168,-0.63086 2.8685,0.15272 5.5303,0.59284 5.916,0.97851 1.0728,1.07281 2.5671,0.83361 1.8672,-0.29882 -0.3399,-0.55 -0.1672,-1 0.3828,-1 0.55,-10e-6 1.2888,0.46863 1.6426,1.04101 0.3537,0.57237 1.4937,0.77134 2.5332,0.44141 2.2092,-0.70116 9.1834,2.31887 8.375,3.62695 -0.3026,0.48963 0.1242,0.89063 0.9492,0.89063 0.825,-10e-6 1.7888,-0.46864 2.1426,-1.04102 0.3537,-0.57237 1.5049,-0.76608 2.5586,-0.43164 2.8519,0.90517 2.5006,-3.07293 -0.6348,-7.18359 -1.6505,-2.16394 -2.7284,-3.20679 -3.5136,-3.20704 z m 8.0546,12.85547 c -0.2763,0.0106 -0.574,0.33682 -0.9453,0.9375 -0.5013,0.81119 -0.3769,1.90556 0.3047,2.6836 1.7967,2.05079 2.8549,1.61492 2.0938,-0.86133 -0.5901,-1.91981 -0.9925,-2.77753 -1.4532,-2.75977 z m -26.4902,2.00977 c -0.825,0 -1.5,0.675 -1.5,1.5 0,0.82499 -0.4674,1.5 -1.0391,1.5 -0.6034,0 -0.4985,0.60381 0.25,1.43945 1.1177,1.2476 1.4556,1.22187 2.5391,-0.1914 1.6951,-2.21112 1.5752,-4.24809 -0.25,-4.24805 z"
           transform="translate(-1087.8827,55.67676)"
           id="path10838"
           inkscape:connector-curvature="0" />
      </g>
      <path
         id="path10788"
         transform="translate(-1087.8827,55.67676)"
         d="m 1979.8438,313.79102 c -3.7377,0 -5.9688,1.83269 -7.1114,5.83984 -0.8273,2.90148 -0.6352,3.65578 1.459,5.75 3.0077,3.00772 7.1335,3.10359 10.1856,0.23633 4.4317,-4.16344 1.4944,-11.82617 -4.5332,-11.82617 z m -129.584,0.54882 c -0.614,-0.0368 -1.2849,0.15375 -2.211,0.50586 -4.1542,1.57942 -5.3574,2.89868 -5.3574,5.87696 0,2.98404 1.4842,5.26455 4.5,6.91406 3.1906,1.74511 5.2068,1.34306 7.4277,-1.48047 2.8221,-3.58761 2.6055,-5.98637 -0.8535,-9.44531 -1.6184,-1.61842 -2.4825,-2.3098 -3.5058,-2.3711 z"
         style="fill:#ff0000"
         inkscape:connector-curvature="0" />
    </g>
    <g
       id="g10894">
      <g
         id="g10887">
        <path
           style="fill:#ffffff;stroke:none"
           d="m 2070.0898,428.99023 c -2.2764,0.0354 -3.3984,0.27773 -3.3984,0.72852 0,0.59041 -0.6193,1.07422 -1.3769,1.07422 -0.7577,0 -1.9568,0.69661 -2.6641,1.54883 -1.3014,1.56814 -9.0198,5.45117 -10.8359,5.45117 -0.5428,0 -1.9122,1.29858 -3.043,2.88672 -1.8871,2.65013 -1.9215,2.99892 -0.4258,4.24023 1.0624,0.88174 3.9028,1.29023 8.1621,1.17188 7.437,-0.20664 10.1836,0.84186 10.1836,3.89062 0,2.03881 -0.075,2.05385 -1.9512,0.35547 -1.5969,-1.44522 -2.641,-1.59813 -5.75,-0.83594 -2.9787,0.73026 -4.7332,0.5388 -8.1308,-0.88867 -6.7141,-2.82085 -8.9771,-2.47485 -9.3535,1.42969 -0.255,2.64377 -0.7037,3.19737 -2.4043,2.96484 -3.2903,-0.44988 -7.4102,1.52778 -7.4102,3.5586 0,1.14071 1.2173,2.2817 3.25,3.04492 3.8178,1.43348 7.3285,3.93714 6.5762,4.68945 -0.2905,0.29045 -2.5084,-0.37105 -4.9278,-1.46875 -6.1784,-2.8032 -9.8984,-2.70967 -9.8984,0.24805 0,1.85328 0.6042,2.33273 3.1836,2.5293 1.7509,0.13341 3.8482,0.79182 4.6602,1.46289 0.8119,0.67107 2.619,1.22069 4.0156,1.2207 3.6189,0 7.4879,5.84494 6.7851,10.25 -0.364,2.28156 -0.126,3.25 0.7969,3.25 2.4829,0 3.8376,-2.89078 3.2852,-7.00977 -0.5635,-4.2007 0.075,-4.75498 3.2168,-2.79297 1.5874,0.99139 1.8225,1.98556 1.3711,5.79688 -0.3972,3.35361 0.017,5.94176 1.5253,9.55273 1.1387,2.72427 2.5416,9.22813 3.1172,14.45313 0.8997,8.16575 0.7859,10.7289 -0.8125,18.25 -1.6451,7.741 -1.507,10.76353 0.3555,7.75 1.0176,-1.64657 9.475,-1.22949 10.1387,0.5 0.3166,0.82497 1.2026,1.5 1.9687,1.5 0.7662,-4e-5 1.3926,0.3876 1.3926,0.86133 0,1.07221 -4.8307,0.22257 -5.5742,-0.98047 -1.0443,-1.68976 -5.3428,-0.9021 -6.459,1.18359 -0.8474,1.58336 -1.4186,1.80485 -2.4473,0.95117 -1.7921,-1.48738 -2.9054,0.30867 -2.123,3.42579 0.3638,1.4496 0.021,2.79648 -0.9063,3.5664 -2.0253,1.68087 -1.8807,3.96553 0.2598,4.10742 1.6667,0.11048 1.6667,0.13867 0,0.57422 -2.1333,0.5575 -2.1902,1.34528 -0.2812,3.86914 2.3992,3.17215 1.8072,10.99192 -1.6192,21.38477 -1.733,5.25649 -3.758,10.26645 -4.5,11.13476 -1.7044,1.99389 -1.6783,4.90584 0.064,7.20313 1.0678,1.40761 2.1866,1.64648 5.3379,1.14258 3.7328,-0.59691 4.0724,-0.44428 5.3359,2.41015 1.5315,3.45999 2.953,2.92198 5.5508,-2.10156 0.8286,-1.6022 1.229,-3.63369 0.8906,-4.51562 -1.3024,-3.39397 -1.5741,-13.35952 -0.5801,-21.28711 0.5706,-4.55152 0.8597,-8.45523 0.6406,-8.67383 -0.674,-0.67458 -3.4602,12.94474 -3.7832,18.49414 -0.168,2.88738 -0.591,5.24988 -0.9394,5.25 -1.0417,2.7e-4 -1.7805,-5.42868 -0.8672,-6.37109 0.4649,-0.47952 0.6352,-1.41525 0.3809,-2.07813 -0.2544,-0.66288 0.8764,-6.27594 2.5117,-12.47266 1.6353,-6.19671 2.7325,-11.89531 2.4375,-12.66406 -0.7418,-1.93317 2.5258,-2.9857 4.8203,-1.55273 1.6089,1.00478 2.0174,0.82929 2.7871,-1.19532 0.496,-1.30457 0.8786,-4.99332 0.8496,-8.19726 -0.047,-5.20229 -0.3833,-6.12629 -3.1426,-8.64649 -3.63,-3.31555 -3.8834,-3.35319 -7.4297,-1.08984 -2.5985,1.65855 -2.6539,1.65614 -1.2968,-0.0547 2.5601,-3.22748 5.0546,-4.01269 7.039,-2.21679 1.7048,1.54283 1.7949,1.25985 1.8789,-5.91993 0.084,-7.23633 1.501,-14.93333 3.1368,-17.04101 0.4268,-0.55003 1.0784,-3.09832 1.4492,-5.66211 0.3708,-2.56378 1.2972,-4.89923 2.0586,-5.19141 0.7614,-0.29218 1.5284,-2.01558 1.7031,-3.83007 0.2283,-2.37086 0.8792,-3.40238 2.3164,-3.66211 4.8301,-0.87286 7.1796,-6.334 4.0645,-9.44922 -3.4503,-3.45027 -0.3401,-10.70508 4.5898,-10.70508 1.9959,-4e-5 5.4376,-4.49738 7.043,-9.20508 1.362,-3.9939 6.0894,-8.79492 8.6601,-8.79492 1.0309,0 3.0888,0.95656 4.5742,2.125 2.1966,1.72781 2.6419,2.798 2.3887,5.73633 -0.2482,2.88058 0.069,3.68663 1.5645,3.97461 1.0315,0.19867 2.2429,-0.2333 2.6914,-0.95899 1.1862,-1.91927 1.6355,-0.80039 0.9883,2.46289 l -0.5645,2.83985 -2.4023,-2.08985 c -2.9866,-2.59671 -5.8562,-2.62544 -9.0977,-0.0898 -1.375,1.07552 -2.9065,1.96631 -3.4043,1.97851 -1.6659,0.0409 2.5127,-3.78012 5.4766,-5.00781 2.8761,-1.19117 3.373,-2.02201 2.9551,-4.92773 -0.2338,-1.62207 -2.9304,-3.96262 -4.6231,-4.01172 -2.1805,-0.0632 -4.9148,3.54001 -5.1191,6.74609 -0.1149,1.80205 -0.9001,4.26288 -1.7461,5.47071 -2.43,3.46929 -1.886,5.57995 1.8398,7.13671 3.4771,1.45282 5.2735,3.29682 4.2285,4.3418 -0.3267,0.3267 -1.3857,-0.11784 -2.3515,-0.98828 -0.9659,-0.87045 -2.9681,-1.88577 -4.4512,-2.25586 -2.2725,-0.56709 -3.3338,-0.0223 -6.75,3.46289 -3.321,3.38806 -4.0547,4.83189 -4.0547,7.98828 0,2.50205 -0.5258,4.05391 -1.5,4.42774 -1.7101,0.65624 -2.0818,4.77069 -0.3965,4.38867 0.6066,-0.1375 1.2586,1.06179 1.4492,2.66601 0.1907,1.60422 1.6659,5.42922 3.2774,8.5 1.6115,3.07078 3.4889,7.38399 4.1719,9.58399 0.6829,2.19997 2.0849,5.39929 3.1152,7.10937 2.1734,3.6073 2.8186,16.77302 0.9902,20.18946 -0.609,1.13805 -1.1074,3.05164 -1.1074,4.25195 0,1.80383 0.3903,2.06068 2.25,1.48242 1.8428,-0.57298 6.5703,-0.75676 9.6191,-0.375 0.3478,0.0435 1.8684,0.0261 3.3809,-0.0391 3.1917,-0.13744 3.5013,-1.76812 1.1836,-6.25 -1.1305,-2.1861 -2.0367,-2.84942 -3.25,-2.37695 -2.9392,1.14454 -3.3134,1.05303 -4.8535,-1.19336 -1.4481,-2.11212 -1.3931,-2.19241 1.332,-2 2.3002,0.16241 2.7969,-0.17846 2.6211,-1.79883 -0.4104,-3.78267 -2.2117,-16.01134 -3.4355,-23.32422 -0.8534,-5.09908 -0.9059,-7.52945 -0.1719,-8 2.5573,-1.63951 2.525,-5.42764 -0.094,-10.60352 -2.1413,-4.23218 -2.4847,-5.88815 -1.8515,-8.93554 1.1338,-5.45715 2.7695,-4.43722 2.7695,1.72656 0,2.92634 0.5365,5.96851 1.1914,6.75977 0.6549,0.79127 1.4308,2.76462 1.7246,4.38476 0.2938,1.62013 1.5573,3.73422 2.8086,4.69727 2.475,1.90486 10.2522,2.45176 11.2774,0.79297 0.8988,-1.45438 3.1946,-0.006 13.7597,8.68164 11.4557,9.42015 11.9588,10.03838 11.1543,13.70117 -0.5305,2.41544 -0.3613,2.81268 0.9727,2.30078 1.0321,-0.39608 1.6113,-0.0904 1.6113,0.84961 0,0.80778 0.45,1.46875 1,1.46875 0.55,0 1,0.49857 1,1.10742 0,0.60884 -0.7095,0.8333 -1.5781,0.5 -1.3184,-0.50591 -1.4634,-0.0697 -0.875,2.64258 0.3877,1.78696 1.2117,3.58029 1.8301,3.98437 1.7548,1.14663 3.623,0.89261 3.623,-0.49218 0,-0.88013 1.3772,-1.1463 4.5918,-0.89063 2.5796,0.20516 5.0873,-0.1303 5.7227,-0.76562 1.564,-1.56407 0.8536,-8.19982 -1.1133,-10.39649 -1.3047,-1.45706 -1.3654,-1.96997 -0.3086,-2.62304 2.3438,-1.44857 -0.4259,-4.5275 -5.2305,-5.8125 -3.1248,-0.83576 -6.689,-3.13912 -11.5723,-7.48047 -6.5317,-5.80758 -18.6939,-18.88188 -23.7324,-25.51172 -2.4082,-3.16886 -12.6778,-6.84234 -15.789,-5.64844 -1.328,0.50958 -1.7115,0.31376 -1.377,-0.70313 1.1999,-3.64805 11.0654,-1.35095 18.0586,4.20508 2.0625,1.63864 3.75,2.45976 3.75,1.82422 0,-0.72548 0.9084,-0.9292 2.4395,-0.54492 3.1674,0.79497 4.0575,-0.78306 2.5253,-4.48047 -1.0634,-2.5684 -0.9757,-3.24501 0.6543,-5.05469 1.0351,-1.14909 2.9047,-2.48035 4.1563,-2.95898 3.2728,-1.25155 3.8407,-3.67812 1.3945,-5.95703 -1.1477,-1.06917 -2.5539,-1.94336 -3.1269,-1.94336 -0.573,0 -0.951,-0.3375 -0.8379,-0.75 0.7111,-2.59416 -5.0646,-9.25 -8.0274,-9.25 -1.3557,-4e-5 -2.4307,6.22107 -2.6386,15.26953 -0.1915,8.33149 -1.3137,10.91161 -3.5664,8.19727 -1.0562,-1.27261 -1.0793,-1.78296 -0.1055,-2.38477 0.6812,-0.42098 1.1437,-1.17423 1.0273,-1.67383 -0.1163,-0.4996 0.1411,-1.71637 0.5723,-2.70508 0.4312,-0.98871 0.5504,-3.53526 0.2656,-5.6582 -0.2847,-2.12295 -0.1051,-4.27178 0.3985,-4.77539 1.5826,-1.58262 -1.1545,-10.96028 -3.5313,-12.09766 -4.6576,-2.22882 -21.809,-5.35423 -25.4433,-4.63672 -2.0109,0.39699 -3.0938,0.92542 -2.4063,1.17579 0.6875,0.25037 1.25,1.0567 1.25,1.79101 0,0.73431 1.575,2.30833 3.5,3.49805 1.925,1.18971 3.5,2.57689 3.5,3.08203 0,1.29613 -1.378,1.13954 -2.8398,-0.32227 -0.7521,-0.75208 -4.0778,-1.25167 -8.4493,-1.26757 -3.9652,-0.0144 -8.1109,-0.56686 -9.2109,-1.22852 -1.7327,-1.04226 -1.3131,-1.20612 3.1426,-1.23242 3.6281,-0.0214 5.3127,-0.47306 5.7187,-1.53125 0.3166,-0.825 0.051,-1.5 -0.5918,-1.5 -0.8743,-2e-5 -0.8663,-0.3017 0.031,-1.19922 1.9892,-1.98926 1.3727,-2.86224 -2.0508,-2.90234 -1.7875,-0.0208 -7.1875,-0.26377 -12,-0.54102 -2.2046,-0.12696 -3.9857,-0.18146 -5.3516,-0.16016 z m 74.6407,31.85743 c -0.5289,0.0705 -1.1547,0.7342 -1.5391,1.94531 -0.3491,1.1 -1.0224,2 -1.4961,2 -1.8664,-4e-5 -4.0039,3.29903 -4.0039,6.17969 0,2.67386 0.2758,2.96773 2.3106,2.45703 1.8144,-0.4554 3.3473,0.43551 7.1308,4.14258 2.6505,2.5969 5.9512,6.41822 7.336,8.49218 1.6648,2.49473 3.0584,3.5983 4.1191,3.26172 1.3635,-0.43266 1.6115,0.53016 1.6465,6.4375 0.039,6.50218 1.1478,10.16659 2.1914,7.23828 0.3536,-0.99219 0.7858,-1.02312 1.8633,-0.1289 1.1056,0.9176 1.4023,0.82178 1.4023,-0.45703 0,-1.07789 0.8677,-1.62306 2.584,-1.62305 3.6596,0 2.3107,2.62632 -2.375,4.625 -0.1598,0.0682 0.6837,1.77325 1.873,3.78906 1.4532,2.46286 2.2932,5.8654 2.5625,10.375 0.2205,3.69101 0.6823,8.01872 1.0254,9.61719 0.4277,1.99258 0.1548,3.25019 -0.8652,4 -0.9041,0.66463 -1.6892,3.44751 -2.0039,7.09375 -0.5882,6.81511 -0.2351,8.5 1.7832,8.5 0.7792,0 1.416,0.40775 1.416,0.90625 0,0.49852 -0.895,0.67263 -1.9883,0.38672 -2.2459,-0.58733 -2.5763,0.0776 -3.5117,7.04883 -0.6336,4.72188 -0.5919,4.8233 1.6758,4.11523 1.2787,-0.39927 2.6481,-1.22843 3.043,-1.8418 0.3948,-0.61337 0.2784,-1.26654 -0.2579,-1.45117 -0.5362,-0.18463 -0.037,-1.65214 1.1094,-3.26172 1.4412,-2.02368 1.9008,-3.77086 1.4922,-5.66406 -0.7723,-3.57863 1.8101,-22.00928 3.291,-23.49023 0.631,-0.63093 1.1524,-1.84477 1.1524,-2.69727 0,-0.8525 0.6784,-2.83869 1.5,-4.41406 2.3714,-4.54696 1.6404,-7.38261 -1.1778,-4.56446 -0.59,0.59007 -2.5937,0.90856 -4.4511,0.70704 l -3.377,-0.36719 4.75,-2.16992 c 4.1789,-1.90992 4.75,-2.54308 4.75,-5.27149 0,-4.99928 -1.5872,-6.97071 -5.6172,-6.9707 -2.4017,0 -3.4089,-0.40389 -3.1172,-1.25 0.2371,-0.6875 1.6233,-1.23264 3.0821,-1.21094 1.4588,0.0217 2.6523,-0.0698 2.6523,-0.20312 0,-1.64975 -2.7435,-5.35301 -4.5879,-6.19336 -4.4049,-2.00701 -18.4308,-16.38163 -21.7754,-22.31641 -1.8097,-3.21132 -3.5927,-5.53619 -3.9629,-5.16602 -0.3701,0.37017 -0.6738,-0.0775 -0.6738,-0.99414 0,-1.15986 -0.432,-1.68182 -0.9609,-1.61132 z m -115.8477,7.94922 c -2.2,0.003 -3.6948,1.38894 -8.1914,7.5957 -7.9656,10.99511 -11.1163,14.40039 -13.3242,14.40039 -2.1201,0 -4.5935,2.63082 -4.6445,4.93945 -0.022,0.99468 0.5979,0.76326 2.0078,-0.75 2.3628,-2.53622 4.9344,-3.06775 2.8828,-0.5957 -1.1288,1.36021 -0.9639,1.88378 1.1269,3.55859 1.3479,1.07967 3.6986,2.43346 5.2227,3.00977 1.5241,0.57631 3.2348,1.91315 3.8008,2.9707 1.273,2.37865 2.9277,1.52409 2.9277,-1.51172 0,-1.24336 -1.1453,-3.25567 -2.5449,-4.47265 l -2.5449,-2.21289 2.705,-4.96875 c 1.4871,-2.73221 3.0824,-4.9668 3.545,-4.9668 1.2153,0 1.077,0.48394 -1.2637,4.45117 -1.2988,2.20196 -1.8276,4.23113 -1.3828,5.30664 0.607,1.46804 0.8705,1.31027 1.6855,-1.00781 0.6726,-1.91279 1.6608,-2.75 3.2461,-2.75 1.2536,0 4.0299,-1.37472 6.168,-3.05469 2.1381,-1.67997 5.4234,-4.26747 7.3008,-5.75 1.8773,-1.48253 4.0674,-3.17771 4.8672,-3.76758 1.2608,-0.92999 1.2208,-1.52786 -0.3028,-4.5 -2.1934,-4.27882 -3.2014,-4.93355 -6.5605,-4.26172 -1.4717,0.29434 -2.9813,0.0409 -3.3555,-0.56445 -0.3742,-0.60541 -1.891,-1.09967 -3.3711,-1.09765 z m 12.418,15.96679 c -1.3915,0.0542 -3.556,1.00083 -5.2031,2.52735 -1.4837,1.375 -2.2521,2.5 -1.7071,2.5 0.5451,0 1.8313,-0.9267 2.8574,-2.06055 1.0565,-1.16741 2.6411,-1.85872 3.6543,-1.59375 0.9842,0.25736 1.7891,0.0591 1.7891,-0.43945 0,-0.67708 -0.5557,-0.9661 -1.3906,-0.9336 z m -11.3555,8.05469 c -1.0247,0.0219 -5.2539,4.20298 -5.2539,5.31641 0,0.54579 1.3138,-0.32163 2.918,-1.92579 1.6041,-1.60417 2.7274,-3.10459 2.4961,-3.33593 -0.038,-0.0377 -0.092,-0.0557 -0.1602,-0.0547 z m -7.9101,6.10352 c -0.2584,0.12325 -0.2355,1.08425 0.166,2.9121 0.444,2.02172 0.1523,3.82576 -0.8692,5.38477 -0.8448,1.28961 -1.2599,2.62094 -0.9218,2.95898 1.2439,1.24392 2.9757,0.55518 4.1582,-1.65429 0.9825,-1.83594 0.9175,-2.9814 -0.3438,-6 -0.9416,-2.2537 -1.6774,-3.4702 -2.0625,-3.60156 -0.048,-0.0164 -0.09,-0.0176 -0.1269,0 z m -13.3887,4.18945 c -2.3253,0.0784 -5.4954,0.93147 -6.2481,2.02344 -0.439,0.63702 -0.5116,6.61161 -0.1601,13.27734 0.6636,12.58288 -0.063,16.04127 -4.2559,20.23437 -1.2671,1.26709 -0.9832,1.60979 2.2539,2.72266 2.0379,0.70058 4.1711,1.73941 4.7403,2.30859 1.5553,1.55534 2.3818,0.57077 3.0273,-3.60937 0.3206,-2.07591 0.893,-4.90039 1.2715,-6.27539 1.224,-4.44665 -1.4712,-0.79069 -2.9922,4.05859 l -1.3945,4.44141 -0.08,-3.5 c -0.049,-2.14216 1.2684,-6.15956 3.3945,-10.35547 2.3745,-4.68609 3.2839,-7.61332 2.8731,-9.25 -0.337,-1.34277 -0.1566,-2.39453 0.4101,-2.39453 0.5558,0 1.4795,-1.35001 2.0547,-3 0.5752,-1.65 1.296,-3 1.5996,-3 1.2117,-4e-5 0.4516,3.95617 -1.0468,5.45508 -0.9502,0.94981 -1.3229,2.29487 -0.9219,3.32031 0.5749,1.47038 0.8858,1.32359 2.1152,-1 0.7929,-1.49867 2.3342,-3.20198 3.4238,-3.78516 1.0897,-0.58318 1.9805,-1.52444 1.9805,-2.09179 0,-2.00888 -5.2629,-7.89845 -7.0586,-7.89844 -1.0022,-4e-5 -2.1256,-0.49043 -2.4961,-1.08985 -0.2071,-0.33509 -0.7863,-0.51757 -1.5547,-0.57617 -0.2882,-0.0216 -0.6033,-0.0268 -0.9355,-0.0156 z m 159.541,25.01367 c -0.3115,-0.0124 -0.6639,-0.01 -1.0488,0.01 -0.5132,0.0263 -1.0851,0.0812 -1.6973,0.16796 -2.3375,0.33135 -6.408,0.86162 -9.0469,1.17774 -3.7013,0.44339 -4.7275,0.94276 -4.4883,2.1875 0.2338,1.21102 1.235,1.53415 4.0118,1.29492 3.2653,-0.28132 3.7755,-0.0137 4.3496,2.27344 0.686,2.73349 -0.3199,13.35342 -1.4258,15.05469 -0.3575,0.55 -0.8754,-2.34014 -1.1504,-6.42188 -0.3145,-4.66795 -0.9638,-7.5729 -1.75,-7.83203 -0.9263,-0.3053 -1.26,1.61503 -1.293,7.41992 -0.024,4.30833 -0.6937,9.63398 -1.4863,11.83399 -0.7926,2.19997 -1.4603,4.89999 -1.4863,6 -0.065,2.77334 -2.3337,5.49732 -4.5938,5.51562 -3.6341,0.0294 -4.8939,1.71247 -4.7949,6.4082 0.1133,5.36704 1.887,7.90796 5.0938,7.29493 1.2709,-0.24291 2.3105,-0.0538 2.3105,0.41992 0,1.04666 5.0862,1.12092 6.5488,0.0957 4.6166,-3.23584 6.9773,-12.75401 8.0332,-32.38086 0.3909,-7.2641 1.0526,-10.43454 2.961,-14.19531 1.3514,-2.66325 2.457,-5.27072 2.457,-5.79492 0,-0.30888 -0.5694,-0.4908 -1.5039,-0.5293 z m -54.4961,10.66797 c -0.55,0 -1,0.76226 -1,1.69726 0,1.13252 -0.3323,1.36689 -0.998,0.70118 -1.5132,-1.51317 -7.569,-0.45201 -9.92,1.73828 -2.461,2.29284 -2.7083,6.69768 -0.5273,9.41992 1.5023,1.87512 1.5193,1.86779 0.5,-0.24219 -1.494,-3.09261 -1.3075,-5.3164 0.4453,-5.3164 0.825,0 1.5,0.4931 1.5,1.0957 0,0.6026 0.8646,2.30901 1.9199,3.79101 3.1101,4.3677 6.0815,14.57563 6.0645,20.83204 -0.011,4.10177 -0.2967,5.34543 -0.9844,4.28125 -0.7379,-1.14188 -0.9724,-0.74103 -0.9844,1.68164 -0.011,2.29624 -0.5726,3.36036 -2.0156,3.81836 -1.1,0.34912 -2,1.13115 -2,1.73828 0,0.60713 -0.6888,1.866 -1.5312,2.79687 -1.3791,1.52379 -1.3541,2.00432 0.25,4.82227 2.1852,3.83877 5.4008,4.11286 8.7656,0.74804 2.6042,-2.6042 3.4795,-2.40649 3.584,0.81055 0.067,2.04603 0.082,2.05018 0.8847,0.0859 2.5647,-6.27938 2.9801,-14.09354 1.3321,-25 -0.9142,-6.05003 -1.5824,-13.82812 -1.4844,-17.28516 0.1345,-4.76305 -0.1821,-6.42438 -1.3106,-6.85742 -0.819,-0.31428 -1.4902,-1.64868 -1.4902,-2.96484 0,-1.31615 -0.45,-2.39258 -1,-2.39258 z m -113.7676,5.3418 c -0.2734,-0.005 -0.5536,0.005 -0.8398,0.0273 -1.8468,0.14544 -3.536,0.45884 -3.752,0.69727 -0.775,0.85541 -1.2881,11.93358 -0.5527,11.93359 1.2831,0 -1.1489,7.15095 -3.1699,9.32031 -1.0543,1.13159 -1.918,2.44899 -1.918,2.92774 0,0.47875 -0.45,0.59187 -1,0.25195 -0.55,-0.33994 -1.056,-0.14106 -1.125,0.44141 -0.069,0.58244 -0.2028,1.39609 -0.2988,1.80859 -1.298,5.59685 -1.5131,10.49809 -0.541,12.31445 1.1318,2.11483 1.1641,2.10686 2.625,-0.70898 0.8134,-1.56789 2.1923,-3.63979 3.0644,-4.60352 0.8722,-0.96373 2.1473,-1.75195 2.834,-1.75195 1.2455,-4e-5 2.465,-6.67273 2.5898,-14.17774 0.042,-2.53712 0.4523,-3.52798 1.3243,-3.19335 1.3418,0.51493 2.8525,-2.93984 2.5703,-5.87891 -0.092,-0.9625 0.3585,-1.75 1.0019,-1.75 0.6438,0 0.9104,0.67499 0.5938,1.5 -0.3372,0.87855 -0.014,1.5 0.7793,1.5 0.7588,0 1.5768,-1.43003 1.8594,-3.25 0.656,-4.23701 -1.9437,-7.3348 -6.045,-7.4082 z m 105.1465,10.6582 c -1.3288,0 -1.3985,0.27147 -0.3789,1.5 0.6847,0.82497 1.4154,1.5 1.6231,1.5 0.2076,0 0.3769,-0.67501 0.3769,-1.5 0,-0.825 -0.7287,-1.5 -1.6211,-1.5 z m 31.9551,11 c -3.037,0 -3.334,0.26666 -3.334,3 0,2.34007 -0.443,3 -2.0137,3 -1.1074,-4e-5 -2.8475,-0.5214 -3.8672,-1.1582 -2.7875,-1.74082 -5.1191,-0.36077 -5.1191,3.02929 0,2.37986 0.6134,3.17616 3.25,4.2168 1.7875,0.70552 3.5126,1.4369 3.832,1.625 0.3195,0.18809 0.4008,-1.13324 0.1817,-2.93555 -0.3959,-3.25575 -0.3899,-3.26119 0.9238,-0.77734 0.7272,1.375 2.7718,3.17499 4.5449,4 3.3517,1.55948 4.585,3.67533 1.5176,2.60351 -1.0435,-0.36461 -0.6164,0.39919 1.0566,1.89258 3.0774,2.74689 6.8253,3.2554 8.5625,1.16211 1.3107,-1.57928 0.5085,-2.65821 -1.9765,-2.6582 -2.1439,-4e-5 -2.5815,-0.64997 -4.3145,-6.4082 -1.1061,-3.67423 -1.1161,-4.92636 -0.059,-6.96485 1.583,-3.05109 1.0773,-3.62696 -3.1855,-3.62695 z m -89.7461,25.38086 c -2.2432,0.0618 -2.613,0.58156 -3.0371,2.27148 -0.3375,1.34449 -0.029,3.66074 0.6836,5.14649 1.0769,2.24383 1.8444,2.64526 4.5312,2.375 1.7791,-0.17895 3.2344,0.0112 3.2344,0.42187 0,1.59471 -3.2599,4.2423 -4.5937,3.73047 -1.3624,-0.52279 -1.9748,2.16732 -1.5762,6.92383 0.081,0.96248 -0.2001,1.75 -0.625,1.75 -0.4249,-4e-5 -1.6005,1.40015 -2.6113,3.11133 -1.2511,2.11791 -2.0775,2.72169 -2.5899,1.89258 -0.5585,-0.90365 -0.9367,-0.9216 -1.4629,-0.0703 -0.39,0.63106 -1.5713,0.87351 -2.625,0.53906 -1.9528,-0.61982 -2.0715,-0.39496 -2.3906,4.52735 -0.089,1.37496 -0.4869,3.47678 -0.8848,4.66992 -0.5596,1.67801 -0.2546,2.317 1.3496,2.82617 1.1408,0.36205 3.2638,1.76083 4.7168,3.10742 3.4654,3.21162 4.791,1.84252 4.5078,-4.65625 -0.2315,-5.32747 1.2248,-9.05189 6.7247,-17.20117 1.8878,-2.79729 2.9048,-5.48774 2.7714,-7.33203 -0.1675,-2.31686 0.1986,-2.91407 1.7891,-2.91406 2.5025,-4e-5 5.5054,-2.45005 5.4824,-4.47266 -0.01,-0.84027 -1.1586,-2.61092 -2.5547,-3.93554 -1.9347,-1.83579 -3.8134,-2.46546 -7.9003,-2.64649 -1.2358,-0.0545 -2.1918,-0.0851 -2.9395,-0.0645 z m 54.2617,0.11914 0.4336,4 c 0.2557,2.35392 -0.1724,5.23453 -1.0391,7 -1.8276,3.72282 -6.2159,8.49999 -7.8085,8.5 -1.4804,-10e-6 -2.9836,1.8238 -3.8594,4.68359 -0.5129,1.67466 0.2165,3.12645 3.1269,6.2168 3.9998,4.24702 7.2016,5.12375 9.3321,2.55664 0.9695,-1.16826 0.9998,-1.8224 0.123,-2.69922 -0.6367,-0.63669 -1.1582,-1.97875 -1.1582,-2.98242 0,-2.97262 8.3695,-20.62705 10,-21.09375 0.825,-0.23615 0.017,-0.28679 -1.7969,-0.11133 -2.7851,0.26938 -3.6139,-0.17704 -5.3261,-2.875 l -2.0274,-3.19531 z"
           transform="translate(-1087.8827,55.67676)"
           id="path10624"
           inkscape:connector-curvature="0" />
      </g>
      <path
         transform="translate(-1087.8827,55.67676)"
         id="path10596"
         d="m 2103.0371,435.79688 c -1.3457,0.003 -0.9952,0.52152 1.2949,1.91796 1.7275,1.05336 3.4431,2.40347 3.8106,2.99805 0.819,1.32528 2.5488,1.42582 2.5488,0.14844 0,-1.40009 -5.5446,-5.06846 -7.6543,-5.06445 z m -42.6933,1.23828 c -2.3424,-0.0534 -1.3152,0.92821 2.6464,2.28125 1.7609,0.60141 3.3965,0.94843 3.6348,0.76953 1.0454,-0.78473 -2.1307,-2.64108 -5.0703,-2.96289 -0.4734,-0.0518 -0.8766,-0.0803 -1.2109,-0.0879 z m 31.9667,4.75781 c -0.825,0 -1.7792,0.44998 -2.1191,1 -0.3399,0.54999 0.058,0.99998 0.8828,1 0.825,0 1.7773,-0.45 2.1172,-1 0.3399,-0.55 -0.056,-1 -0.8809,-1 z m -18.0449,0.29492 c -0.5815,-0.0836 -0.6723,1.13407 -0.3398,4.08399 0.464,4.11666 0.3173,4.61065 -1.2129,4.125 -2.433,-0.7722 -3.6762,1.2096 -4.2754,6.80859 -0.6341,5.92525 -4.0135,10.08794 -7.4844,9.2168 -1.8129,-0.45502 -2.4991,-0.035 -3.2773,2.01171 -0.5412,1.42349 -0.9844,3.00924 -0.9844,3.52344 0,0.51419 0.3961,0.93555 0.8789,0.93555 1.7624,-1e-5 7.8125,-2.92421 8.9922,-4.3457 1.2866,-1.55021 3.09,-6.70237 3.6211,-10.34766 0.4675,-3.20829 1.3823,-4.30666 3.5879,-4.30664 1.1162,-1e-5 2.4481,1.06269 3.0879,2.4668 0.6186,1.35776 1.4828,2.24867 1.9199,1.97851 0.4371,-0.27017 -0.069,-2.39366 -1.125,-4.71875 -1.0555,-2.32509 -1.9293,-5.66293 -1.9414,-7.41797 -0.012,-1.75504 -0.5372,-3.51053 -1.168,-3.90039 -0.1033,-0.0638 -0.1962,-0.10134 -0.2793,-0.11328 z m 7.6739,1.11523 c -0.7988,-0.0114 -1.3478,0.37582 -1.9727,1.23047 -0.7008,0.95835 -1.2754,2.13202 -1.2754,2.60938 0,0.47732 0.3847,0.63079 0.8555,0.33984 0.4707,-0.29094 2.1582,-1.03895 3.75,-1.66211 l 2.8945,-1.13281 -2.4746,-0.94922 c -0.7286,-0.27909 -1.2981,-0.42866 -1.7773,-0.43555 z m 39.3769,1.58594 c -1.2623,0.002 -2.7046,0.8857 -3.3965,2.4043 -0.6015,1.32013 -0.7899,2.7042 -0.4179,3.07617 0.3719,0.37197 1.2963,-0.2583 2.0546,-1.40039 0.7584,-1.1421 2.0261,-2.07619 2.8164,-2.07617 0.7905,0 1.1583,-0.45 0.8184,-1 -0.4252,-0.68799 -1.1176,-1.00482 -1.875,-1.00391 z m -46.8301,11.32422 c -0.075,-0.0166 -0.1452,-0.0133 -0.209,0.01 -1.2411,0.44152 -1.1596,1.50868 0.5665,7.375 1.1005,3.74156 1.0342,4.43165 -0.6114,6.25 -1.6502,1.82351 -1.6717,2.04492 -0.1953,2.04492 2.7304,0 5.8398,-3.80508 5.1484,-6.30078 -1.2739,-4.59891 -3.5755,-9.12974 -4.6992,-9.37891 z m -11.0058,0.10742 c -0.4706,-0.0225 -0.7891,0.95203 -0.7891,2.51368 0,1.68245 0.45,3.05855 1,3.05859 0.55,-1e-5 1,-1.09887 1,-2.44141 0,-1.34254 -0.45,-2.71867 -1,-3.05859 -0.073,-0.0451 -0.1437,-0.0691 -0.2109,-0.0723 z m 82.2656,10.6211 c -0.9373,-0.032 -2.0547,1.41569 -2.0547,3.00976 0,1.06754 0.4207,1.94141 0.9336,1.94141 1.075,0 2.5099,-3.89052 1.7246,-4.67578 -0.1813,-0.18131 -0.3872,-0.26801 -0.6035,-0.27539 z m -77.8047,4.16601 c -1.2272,0.12485 -4.1837,2.79345 -5.3887,5.04492 -0.5245,0.98002 -0.5954,2.33558 -0.1582,3.01172 0.5423,0.83854 0.8963,0.51921 1.1133,-1.00195 0.175,-1.22655 1.4822,-3.14501 2.9043,-4.26367 1.4222,-1.11866 2.2951,-2.3241 1.9395,-2.67969 -0.095,-0.0946 -0.2349,-0.12917 -0.4102,-0.11133 z m -1.1309,3.76172 c -0.7633,0.0971 -2.0856,2.30959 -2.1035,3.77344 -0.01,0.6875 0.3833,1.25 0.8692,1.25 1.0142,0 2.2963,-4.15293 1.5215,-4.92774 -0.081,-0.0808 -0.1781,-0.10957 -0.2872,-0.0957 z m 3.9297,0.0215 c -1.9191,0 -3.4586,2.52617 -2.4922,4.08984 0.8454,1.36774 3.0461,1.09453 4.4082,-0.54688 1.4887,-1.79309 0.5415,-3.54296 -1.916,-3.54296 z m -12.0332,2.5 c -1.6066,0 -1.9457,4.20452 -0.8476,10.5 0.4317,2.475 1.0404,5.96249 1.3535,7.75 0.9792,5.5905 1.7952,3.54696 1.1289,-2.82813 -0.3495,-3.34343 -0.2103,-6.87642 0.3105,-7.84961 1.1999,-2.24196 -0.1694,-7.57226 -1.9453,-7.57226 z m 60.627,0.88867 c -0.074,-0.0102 -0.1663,-0.006 -0.2774,0.008 -0.296,0.0357 -0.7233,0.14741 -1.2949,0.29688 -1.2583,0.32907 -1.7216,1.05001 -1.3301,2.07031 0.3964,1.03287 0.2016,1.3208 -0.5703,0.84375 -0.6434,-0.39769 -1.1699,-0.28468 -1.1699,0.25195 0,0.53663 0.5562,1.16065 1.2344,1.38672 0.6782,0.22606 1.8032,-0.68816 2.5,-2.03125 1.0637,-2.05036 1.4285,-2.75257 0.9082,-2.82422 l 0,-0.002 z m -25.4121,3.15625 c -0.1068,-0.0128 -0.2375,0.0617 -0.3926,0.21679 -0.6161,0.61613 -1.3397,3.40102 -1.6074,6.1875 -0.4083,4.24915 -0.075,5.68796 2.0664,8.92383 1.4043,2.122 3.0695,5.77099 3.6992,8.10938 0.6297,2.33839 1.6753,4.8308 2.3242,5.53711 1.735,1.88835 2.0364,-0.0466 0.7832,-5.02344 -1.4813,-5.88269 -1.3192,-7.66671 0.3613,-3.99609 1.4069,3.07082 1.9733,1.73111 0.9239,-2.18164 -0.3269,-1.21896 -1.1456,-1.96577 -1.8555,-1.69336 -0.7136,0.27383 -1.5715,-0.52241 -1.959,-1.81836 -0.628,-2.10046 -0.7569,-2.14091 -1.4297,-0.45899 -0.6761,1.69013 -0.8529,1.70793 -2.0839,0.22461 -0.9834,-1.18483 -1.177,-3.41085 -0.7227,-8.27539 0.3727,-3.99176 0.3554,-5.6965 -0.1074,-5.75195 z m 19.2695,3.52344 2.3613,1.96679 c 2.418,2.0144 4.3037,2.4698 5.4571,1.31641 1.0434,-1.04342 -2.5879,-3.28521 -5.3184,-3.2832 l -2.5,0 z m -95.5,14.93359 c -0.55,0 -1,0.44997 -1,1 0,0.54999 0.45,1 1,1 0.55,0 1,-0.45 1,-1 0,-0.55001 -0.45,-1 -1,-1 z m 85.3594,5.3457 c -0.018,-0.008 -0.033,-0.004 -0.047,0.01 -0.367,0.36696 1.4007,12.38059 2.2656,15.39453 0.6269,2.18443 1.4785,1.34438 1.0137,-1 -0.2453,-1.23751 -0.9919,-5.07427 -1.6602,-8.52539 -0.6264,-3.23542 -1.3061,-5.75764 -1.5722,-5.87696 l 0,-0.002 z m -92.709,2.73438 c -0.6025,-0.004 -0.6504,0.53918 -0.6504,1.91797 0,2.3248 1.2641,2.59352 2.9043,0.61718 0.8885,-1.07061 0.7831,-1.5226 -0.4609,-2 -0.8711,-0.33424 -1.4315,-0.53296 -1.793,-0.53515 z m 52.0762,4.09179 c -0.1931,0.048 -0.5512,0.64474 -1.2266,1.82618 -0.786,1.375 -1.4409,3.625 -1.457,5 -0.029,2.49839 -0.03,2.49724 1.4629,-0.36524 0.8216,-1.57537 1.4788,-3.82537 1.4589,-5 -0.016,-1.00925 -0.045,-1.50897 -0.2382,-1.46094 z m 39.7031,1.6211 c -0.1294,0.0698 -0.2216,0.67382 -0.2344,1.70508 -0.02,1.65 0.187,2.44656 0.461,1.76953 0.2739,-0.67703 0.2907,-2.02703 0.037,-3 -0.095,-0.36487 -0.1861,-0.51647 -0.2637,-0.47461 z m 72.3711,3.73828 c -0.634,0.0773 -1.3225,0.53395 -1.582,1.3125 -0.2804,0.84112 0.176,1.21599 1.2187,1 0.9174,-0.19002 1.6442,-0.7957 1.6152,-1.3457 -0.039,-0.74215 -0.6179,-1.04408 -1.2519,-0.9668 z M 2110.3828,547.75 c -0.1032,-0.006 -0.2017,-0.002 -0.2969,0.01 -1.2688,0.15376 -1.7967,1.81881 -0.8105,4.38867 0.7859,2.04804 3.4255,0.92263 2.7851,-1.1875 -0.2782,-0.91698 0.1093,-0.64144 0.8633,0.61328 1.4089,2.34432 2.7676,2.04203 2.7676,-0.61524 0,-0.82496 -0.2787,-1.22131 -0.6191,-0.88086 -0.3405,0.34048 -1.2715,-0.0332 -2.0703,-0.83203 -0.9852,-0.98513 -1.8969,-1.45585 -2.6192,-1.49609 z m -114.0117,3.12695 c -0.063,3.4e-4 -0.1311,0.0335 -0.2031,0.10547 -0.288,0.28794 -0.2394,1.26425 0.1074,2.16797 0.7818,2.03724 1.0469,2.04937 1.7988,0.0898 0.3415,-0.88988 0.1723,-1.28979 -0.3945,-0.93945 -0.5437,0.33602 -0.9883,0.0589 -0.9883,-0.61523 0,-0.5056 -0.1326,-0.80962 -0.3203,-0.8086 z m -1.2305,15.48243 c -0.1243,0.0146 -0.2739,0.16236 -0.4492,0.43359 -1.1122,1.72104 -1.3211,6.34493 -0.332,7.33398 1.1886,1.18859 1.3319,0.73874 1.3164,-4.08398 -0.01,-2.57661 -0.1622,-3.7273 -0.5352,-3.68359 z m 60.8125,13.65039 c -0.1807,0.0448 -0.2393,0.53815 -0.2461,1.5332 -0.01,1.23749 0.4344,2.25 0.9844,2.25 1.2529,0 1.2529,-1.06124 0,-3 -0.2939,-0.45487 -0.5037,-0.71888 -0.6523,-0.77539 -0.031,-0.0118 -0.06,-0.0138 -0.086,-0.008 z m 60.4766,0 c -0.026,-0.006 -0.055,-0.004 -0.086,0.008 -0.1486,0.0565 -0.3584,0.32053 -0.6524,0.77539 -0.5332,0.82499 -0.9764,1.83748 -0.9844,2.25 -0.01,0.41248 0.4344,0.75 0.9844,0.75 0.55,0 0.9924,-1.0125 0.9844,-2.25 -0.01,-0.99503 -0.065,-1.4884 -0.2461,-1.5332 z"
         style="fill:#000000"
         inkscape:connector-curvature="0" />
    </g>
    <g
       id="g10890">
      <path
         id="path10494"
         transform="translate(-1087.8827,55.67676)"
         d="m 1719.6543,456.07812 c -1.97,-0.0388 -4.4791,1.13014 -8.0977,3.57227 -5.075,3.42509 -8.464,3.30485 -13.5488,-0.48437 -3.8799,-2.89131 -8.2005,-3.03863 -11.5644,-0.39258 -1.881,1.47962 -2.8267,3.61431 -3.7364,8.43554 -1.1431,6.05825 -1.0784,6.69886 1.0371,10.4629 2.0806,3.70183 2.2077,4.85432 1.6719,15.01171 -0.3668,6.95278 -1.174,12.25243 -2.1933,14.40039 -1.4503,3.0563 -1.6386,9.93571 -0.3086,11.26563 1.0846,1.08458 3.7773,-0.89665 3.7773,-2.7793 0,-1.59607 0.463,-1.88708 2.25,-1.4082 1.2375,0.33164 2.8314,0.60919 3.543,0.61719 0.7116,0.008 1.2221,0.57617 1.1328,1.26367 -0.5201,4.00585 1.6962,5.11704 4.1973,2.10351 1.9292,-2.32461 1.415,-9.33504 -1,-13.63476 -1.7634,-3.13961 -2.051,-5.46413 -2.0997,-16.92969 -0.082,-19.40128 -0.1814,-18.8087 2.8008,-16.91797 1.086,0.68853 1.041,1.51561 -0.25,4.60547 -1.6624,3.9789 -2.316,24.94799 -0.8066,25.88086 0.4222,0.26093 0.7657,-4.55044 0.7617,-10.69141 -0.01,-10.70615 0.113,-11.34008 2.9141,-15.42187 l 2.9218,-4.25781 2.8457,3.45312 c 1.5651,1.8987 4.3472,3.99419 6.1836,4.6582 7.6069,2.75073 12.0155,22.13231 5.2539,23.09766 -1.3323,0.19021 -2.0958,0.96957 -2.0097,2.05469 0.076,0.96222 -0.2786,1.74999 -0.7891,1.75 -0.5106,-4e-5 -0.3479,0.62926 0.3613,1.39844 1.0913,1.18362 1.3699,1.07985 1.8165,-0.67579 0.8759,-3.44528 2.6042,-3.0553 2.2578,0.50977 -0.4225,4.3487 1.377,6.36672 6.4433,7.22266 3.9285,0.66372 4.2342,0.54381 4.8418,-1.87696 0.3566,-1.42117 0.3718,-4.26907 0.033,-6.33007 -0.3384,-2.06101 -0.8118,-6.09511 -1.0527,-8.96485 -0.2409,-2.86973 -0.9106,-6.91973 -1.4883,-9 -0.5777,-2.08026 -1.0536,-5.21957 -1.0566,-6.97461 0,-1.75504 -0.5185,-3.50757 -1.1446,-3.89453 -0.8062,-0.49822 -0.9625,0.28764 -0.5351,2.69141 0.3319,1.86701 0.8313,5.86953 1.1094,8.89453 l 0.5058,5.5 -1.4512,-5.5 c -1.9392,-7.35432 -2.4752,-24.93184 -0.7402,-24.26563 2.0308,0.77979 1.4526,-3.20658 -0.8984,-6.19531 -1.1511,-1.46327 -2.3565,-2.2237 -3.8887,-2.25391 z m -74.7129,8.73047 c -2.6246,-0.0179 -2.9644,2.45734 -0.7402,5.39649 2.5664,3.39137 -0.8664,10.58789 -5.0508,10.58789 -2.3351,-4e-5 -1.2597,-2.28228 1.7734,-3.76172 2.372,-1.15695 2.4923,-1.50749 1.4571,-4.25 -0.6206,-1.64398 -1.5913,-2.97453 -2.1582,-2.95703 -1.485,0.0458 -4.5313,2.51567 -4.5313,3.67383 0,1.5685 -3.2559,4.07894 -6.2656,4.83007 -1.5212,0.37967 -3.7029,1.87744 -4.8477,3.32813 l -2.0801,2.63672 4.7344,0.56055 c 3.6676,0.43477 5.3773,1.28264 7.5957,3.76562 1.5749,1.76255 2.8633,4.09812 2.8633,5.18945 0,2.25216 1.0414,2.54455 2.8008,0.78516 0.66,-0.66 1.1992,-2.235 1.1992,-3.5 0,-1.265 0.4683,-2.30079 1.0391,-2.30078 0.5709,0 0.9084,1.2375 0.75,2.75 -0.2351,2.24633 0.1526,2.81341 2.123,3.0918 2.321,0.32792 2.3454,0.27119 0.6172,-1.45704 -1.0253,-1.02527 -1.3443,-1.9458 -0.7422,-2.14648 0.6624,-0.2208 0.4406,-1.42089 -0.5957,-3.22656 -1.2854,-2.23958 -1.947,-2.62856 -2.9961,-1.75781 -1.0123,0.84007 -1.5669,0.76317 -2.2305,-0.31055 -0.6132,-0.99205 -0.3493,-1.62762 0.8633,-2.07617 0.9604,-0.35532 2.9944,-2.4456 4.5196,-4.64649 1.9381,-2.79671 3.3149,-3.86057 4.5742,-3.53125 2.6295,0.68764 3.3379,-2.28066 1.4316,-6.00195 -1.9319,-3.77108 -3.0813,-4.65128 -6.1035,-4.67188 z m 21.9199,2.11329 c -1.3564,-0.0651 -2.4966,0.72041 -3.5781,2.37109 -0.901,1.375 -2.329,2.5 -3.1738,2.5 -0.8448,0 -1.2579,0.45 -0.918,1 0.3606,0.58341 -0.6567,1 -2.4414,1 -2.5963,-2e-5 -3.0586,0.37816 -3.0586,2.5 0,2.4732 1.5088,3.47554 2.1836,1.45117 0.535,-1.605 11.1165,-2.39625 13.6816,-1.02344 1.2056,0.64523 1.9265,1.60065 1.6036,2.12305 -0.7701,1.246 0.4218,3.13509 1.541,2.44336 0.4794,-0.29598 0.6965,-2.86994 0.4843,-5.7207 -0.2942,-3.9502 -0.9335,-5.60599 -2.6894,-6.95703 -1.3936,-1.07228 -2.5798,-1.6368 -3.6348,-1.6875 z m -3.0976,10.86914 c -5.1234,0 -6.0821,1.99791 -5.4102,11.2871 0.7059,9.76106 2.3379,12.72481 2.3379,4.2461 0,-7.78025 0.8764,-6.67323 1.1191,1.41406 0.1473,4.91183 -0.186,6.62937 -1.4648,7.56445 -0.9098,0.66527 -1.6543,2.1866 -1.6543,3.38282 0,1.19621 -0.727,3.28497 -1.6152,4.64062 -1.1869,1.81145 -1.2772,2.46484 -0.3438,2.46485 0.8593,-4e-5 0.7009,0.62734 -0.4883,1.9414 -2.6107,2.88473 -1.5391,4.21095 3.7403,4.62696 5.3514,0.42164 8.707,1.88653 8.707,3.80078 0,2.39017 -1.2473,2.58143 -3.7891,0.58203 -1.8555,-1.4596 -3.3769,-1.82274 -5.7636,-1.375 -2.5141,0.47165 -3.4843,0.19371 -4.3145,-1.23438 -0.9056,-1.5579 -1.0758,-1.59116 -1.1015,-0.21484 -0.017,0.89515 0.6705,2.21081 1.5273,2.92187 2.35,1.95035 4.2127,7.14549 4.8887,13.63282 0.3335,3.19983 0.8493,6.6009 1.1445,7.55664 0.4539,1.4699 0.065,1.64327 -2.5273,1.125 -3.5304,-0.70607 -4.0181,0.86951 -1.6817,5.43554 0.76,1.48519 1.6996,4.61368 2.0879,6.95118 0.8644,5.20199 1.9946,5.40343 3.5684,0.63476 0.6563,-1.98867 2.0417,-4.46367 3.0781,-5.5 2.4664,-2.46641 2.3899,-5.71666 -0.1992,-8.47266 -3.3775,-3.5951 -2.2826,-16.4121 1.4023,-16.4121 0.7533,0 2.1691,-0.88115 3.1445,-1.95899 2.0081,-2.21799 1.5377,-5.89607 -1.0878,-8.52148 -1.1628,-1.16281 -1.4569,-2.63613 -1.0391,-5.21094 0.3204,-1.9742 0.1496,-4.39731 -0.3789,-5.38477 -0.5827,-1.0889 -0.6418,-4.77213 -0.1504,-9.35937 0.7435,-6.93881 0.1959,-10.90099 -1.3008,-9.4043 -0.3311,0.33106 -1.0087,3.46768 -1.5058,6.97071 l -0.9043,6.36914 0.3496,-6.5 c 0.1921,-3.575 0.6685,-7.28751 1.0586,-8.25 0.5381,-1.32786 0.214,-1.75 -1.3399,-1.75 -2.3192,0 -3.365,-1.13333 -2.3496,-2.54688 1.0987,-1.52952 3.4307,-1.66783 4.3262,-0.25586 0.534,0.84177 0.8318,0.15266 0.8418,-1.94726 0.014,-2.93033 -0.2716,-3.25 -2.9121,-3.25 z m 4.3301,1.18945 c -0.2868,-0.0677 -0.4024,0.23986 -0.4024,0.94336 0,1.98786 1.3448,3.33276 1.8418,1.84179 0.2108,-0.63249 -0.1166,-1.64983 -0.7285,-2.26171 -0.3063,-0.30624 -0.5393,-0.48284 -0.7109,-0.52344 z m 99.6718,1.95508 c -0.5188,-0.0598 -1.3455,0.19812 -2.457,0.79297 -1.3086,0.70034 -3.3325,0.96954 -4.4981,0.5996 -1.4242,-0.45203 -2.1244,-0.23891 -2.1347,0.64649 -0.01,0.72457 -0.4447,1.99141 -0.9707,2.81641 -0.8114,1.27244 -1.1983,1.15529 -2.5528,-0.76758 -0.8781,-1.2467 -2.0762,-1.96948 -2.6621,-1.60742 -0.5858,0.36205 -2.6717,0.75581 -4.6347,0.875 -1.9631,0.11916 -3.7399,0.72945 -3.9493,1.35742 -0.2092,0.62796 -1.0177,1.14258 -1.7968,1.14258 -0.7792,0 -1.418,0.44999 -1.418,1 0,0.55 0.4022,1 0.8926,1 0.4904,0 1.1493,1.02801 1.4648,2.28515 0.5876,2.34114 4.6426,3.36147 4.6426,1.16797 0,-0.61548 0.5625,-1.17489 1.25,-1.24219 8.1018,-0.79332 17.1846,-4.28601 18.75,-7.21093 0.949,-1.77322 0.939,-2.75577 0.074,-2.85547 z m -94.0293,3.91211 c -0.3466,-0.0293 -0.9059,0.20809 -1.6797,0.70898 -1.712,1.10833 -2.2267,9.89159 -1.0254,17.48438 0.5879,3.71249 1.3128,6.7499 1.6133,6.75 0.3006,1.1e-4 0.4567,-4.52657 0.3457,-10.06055 -0.1111,-5.53397 0.2147,-11.15887 0.7246,-12.5 0.587,-1.54373 0.5992,-2.33401 0.022,-2.38281 z m -45.4492,1.96289 c -2.7624,-0.0503 -5.1436,0.82284 -5.4101,2.22851 -0.2245,1.18441 0.136,1.5687 1.1191,1.19141 1.0257,-0.3936 1.5828,0.33785 1.9004,2.50195 0.3084,2.10151 0.035,3.06054 -0.877,3.06055 -0.7297,0 -1.3281,-0.9 -1.3281,-2 0,-1.10001 -0.5011,-2 -1.1152,-2 -0.702,0 -0.8868,1.02093 -0.4961,2.75 0.3417,1.51245 0.9044,5.08399 1.25,7.93555 0.5542,4.57253 0.2928,5.71395 -2.2149,9.67773 -1.5638,2.47194 -3.1772,4.28851 -3.584,4.03711 -1.0085,-0.62333 -3.0755,3.40764 -2.3496,4.58203 0.3618,0.58591 1.5091,0.58913 3.0372,0.008 2.7596,-1.04926 5.558,-0.33165 6.8085,1.74805 0.7106,1.18183 1.1604,1.17373 3,-0.0586 1.708,-1.14432 2.1015,-2.26368 1.8653,-5.31446 -0.9052,-11.69112 -0.8696,-11.86836 3.0722,-15.58593 2.0503,-1.93373 3.7266,-4.23439 3.7266,-5.11329 0,-3.06117 -3.4093,-8.73106 -5.5781,-9.27539 -0.9416,-0.23633 -1.9054,-0.35624 -2.8262,-0.37304 z m 70.8477,1.11914 c -0.2167,-0.10974 -0.2846,1.38886 -0.3399,4.94726 -0.056,3.62084 0.1978,6.88334 0.5645,7.25 1.3853,1.38532 2.1257,0.55518 2.5195,-2.81836 0.2238,-1.91632 0.013,-3.61637 -0.4707,-3.77734 -0.4829,-0.16098 -1.246,-1.85536 -1.6953,-3.76563 -0.2649,-1.12635 -0.4481,-1.77003 -0.5781,-1.83593 z m 31.8789,4.1875 c -0.2513,0.10713 -0.2286,1.04768 0.082,2.67578 2.4708,12.9492 2.9464,17.20415 2.0586,18.40234 -6.3799,8.61057 -6.848,9.88102 -7.2031,19.59766 -0.36,9.85034 0.8662,10.83532 2.1777,1.75 0.3771,-2.61253 1.0301,-4.75 1.4512,-4.75 0.421,0 0.58,-1.26286 0.3535,-2.80664 -0.2579,-1.75716 0.1815,-3.29948 1.1738,-4.12305 0.8719,-0.72356 1.584,-1.93571 1.584,-2.69336 0,-0.75766 0.4022,-1.37695 0.8926,-1.37695 0.4904,-4e-5 1.187,-1.17967 1.5488,-2.62109 0.3618,-1.44147 1.3911,-3.35394 2.2871,-4.25 1.5041,-1.50397 1.5041,-1.65215 0,-1.94141 -1.1069,-0.21322 -1.8319,-1.81132 -2.2696,-5 -0.7543,-5.4953 -2.4828,-11.27175 -3.7968,-12.6875 -0.1439,-0.15508 -0.2581,-0.21148 -0.3418,-0.17578 z m 10.6484,11.26367 c -0.4055,0.0347 -0.8043,0.40516 -1.0937,1.19922 -0.6399,1.75526 0.6258,5.21389 1.9082,5.21289 0.3931,-4e-4 0.7872,-1.23766 0.875,-2.74805 0.1277,-2.19794 -0.7974,-3.74046 -1.6895,-3.66406 z m -41.7344,0.80859 c -0.062,0.0109 -0.1257,0.0356 -0.1914,0.0762 -0.526,0.32509 -0.7044,1.25122 -0.3945,2.0586 0.7932,2.06714 1.3496,1.82471 1.3496,-0.58984 0,-0.99091 -0.329,-1.62083 -0.7637,-1.54493 z m -66.1425,1.59766 c -0.8639,-0.0586 -2.0897,0.55209 -2.4864,1.58594 -0.9699,2.52751 -0.7032,5.41796 0.5,5.41797 0.6088,0 0.8598,-0.64295 0.5586,-1.42774 -0.3011,-0.78478 0.1023,-1.96353 0.8946,-2.62109 0.7924,-0.65756 1.4394,-1.59157 1.4394,-2.07422 0,-0.57091 -0.3879,-0.84566 -0.9062,-0.88086 z m 103.5175,1.34766 c -0.3586,-0.0603 -0.6113,0.16081 -0.6113,0.59765 0,0.58246 0.45,1.05859 1,1.0586 0.55,0 1,-0.19887 1,-0.44141 0,-0.24254 -0.45,-0.71868 -1,-1.05859 -0.1375,-0.0849 -0.2691,-0.13615 -0.3887,-0.15625 z m 10.9453,1.16015 c -0.1632,-0.0264 -0.3193,0.0473 -0.4453,0.23438 -0.3359,0.49873 -1.5113,1.29889 -2.6113,1.77734 -1.8443,0.80218 -2.7356,1.05933 -4.75,1.36914 -0.4125,0.0634 0.03,0.90272 0.9844,1.86524 1.6515,1.66602 1.8509,1.64204 4.1465,-0.5 1.3262,-1.23753 2.7819,-2.25 3.2343,-2.25 0.4525,0 0.5492,-0.71287 0.2149,-1.58399 -0.2089,-0.54444 -0.5014,-0.86801 -0.7735,-0.91211 z m -75.0878,3.4961 c -0.9957,-4e-5 -2.4076,4.99729 -1.834,6.49218 1.0416,2.71422 2.0355,1.5863 2.1953,-2.49218 0.086,-2.2 -0.076,-4 -0.3613,-4 z m 45.0312,1 c -0.8899,0 -1.3399,0.44999 -1,1 0.3399,0.55 0.7899,1 1,1 0.2101,0 0.6601,-0.45 1,-1 0.3399,-0.55003 -0.1101,-1 -1,-1 z m -14.5332,1.57812 -2.3379,2.46094 c -1.286,1.3536 -2.0961,3.1115 -1.8008,3.90625 0.4874,1.31227 0.5358,2.98866 0.2637,9.09375 -0.05,1.12178 -1.8403,3.75568 -3.9785,5.85156 -4.1208,4.03927 -5.7728,8.59278 -4.4746,12.33789 l 0.789,2.27149 0.3243,-2.5 c 0.1783,-1.375 1.0496,-4.1875 1.9375,-6.25 0.8879,-2.0625 2.1435,-3.75 2.791,-3.75 2.0506,0 5.5496,-9.1368 5.3613,-14 -0.096,-2.47501 0.1194,-5.60734 0.4766,-6.96094 l 0.6484,-2.46094 z m 18.8672,1.42188 c -3.749,0 -4.7488,1.19202 -3.7754,4.5 0.1619,0.55 0.1927,4.375 0.07,8.5 -0.1984,6.70583 -0.4946,7.72596 -2.8027,9.63867 -2.7406,2.27111 -2.4947,4.44288 0.4258,3.76953 2.4575,-0.56662 5.6424,2.12224 4.8769,4.11719 -0.5665,1.47607 -0.7649,1.48126 -2.1973,0.0488 -0.8659,-0.86586 -2.3814,-1.57421 -3.3671,-1.57421 -1.432,0 -1.7911,0.82609 -1.7911,4.10742 0,2.41193 -0.5724,4.46872 -1.3867,4.98437 -0.7625,0.48289 -0.8936,0.88458 -0.291,0.89258 1.1425,0.016 1.0507,11.16136 -0.1074,13.03516 -0.3332,0.53919 0.096,0.98046 0.9531,0.98047 0.8575,0 1.5586,-0.66595 1.5586,-1.48047 0,-0.81452 1.1378,-1.76649 2.5274,-2.11524 2.7699,-0.69526 5.2891,-4.25762 3.7343,-5.28125 -2.492,-1.64072 -2.2941,-11.12304 0.2324,-11.12304 2.8801,-4e-5 3.5821,-2.64828 2.6856,-10.13868 -0.8847,-7.39161 0.5409,-17.614 2.8437,-20.38867 1.4161,-1.70638 0.1186,-2.47265 -4.1894,-2.47265 z m -44.8926,2 c -0.5825,0 -0.7813,0.44999 -0.4414,1 0.3399,0.55 0.8161,1 1.0586,1 0.2426,0 0.4414,-0.45 0.4414,-1 0,-0.55003 -0.4762,-1 -1.0586,-1 z m 12.9961,0.0781 c -0.3877,-0.057 -0.7472,0.37127 -1.3945,1.23633 -0.7548,1.00858 -2.7083,1.85229 -4.4004,1.90039 -4.2249,0.12012 -4.5972,2.1298 -1.5781,8.51172 2.2406,4.73625 2.5241,6.39949 2.0781,12.21289 -0.5768,7.51899 -3.2929,14.4086 -5.3652,13.61328 -1.0046,-0.38526 -1.0855,-0.0625 -0.336,1.33789 0.5433,1.01531 0.7308,2.10316 0.416,2.41797 -0.7071,0.70707 1.6711,10.72619 2.9532,12.44141 1.5751,2.10716 3.429,1.40764 5.6074,-2.11719 1.1449,-1.85242 2.082,-4.32742 2.082,-5.5 0,-1.17259 0.45,-2.13281 1,-2.13281 1.6743,0 1.1217,-3.68034 -1.125,-7.48829 -1.8129,-3.07256 -2.0596,-4.73675 -1.6738,-11.30664 0.4933,-8.40041 2.0987,-12.20179 4.8496,-11.48242 1.2825,0.33537 2.049,-0.49517 2.9336,-3.17578 1.3418,-4.06548 0.8122,-6.54687 -1.3965,-6.54687 -0.8111,0 -2.1967,-1.0125 -3.0801,-2.25 -0.7658,-1.07284 -1.1826,-1.61488 -1.5703,-1.67188 z m -57.1367,1.68359 c -0.3212,-0.0565 -0.83,0.51172 -1.4863,1.73829 -0.8829,1.64999 -2.0474,3.28766 -2.5879,3.63867 -0.5405,0.351 -0.6753,1.13433 -0.3008,1.74023 0.8197,1.32623 4.2747,-1.58773 4.5996,-3.8789 0.2922,-2.06102 0.1883,-3.16569 -0.2246,-3.23829 z m 42.8242,3.60157 c -0.3892,-0.0583 -1.0835,0.67675 -1.6602,1.80078 -1.1449,2.23286 -1.1184,2.25959 0.6094,0.60937 0.9941,-0.94941 1.5325,-2.00074 1.1973,-2.33593 -0.042,-0.0419 -0.091,-0.0662 -0.1465,-0.0742 z m -56.3809,1.88672 c -3.3894,-0.17407 -4.4282,1.13235 -3.3105,4.07226 0.5721,1.50459 0.6552,3.61473 0.1934,4.86328 -0.8873,2.39846 0.5929,9.81446 1.9589,9.81446 0.4638,0 1.3781,-1.0125 2.0313,-2.25 0.6532,-1.23755 2.6939,-3.68303 4.5352,-5.4336 1.8408,-1.75056 3.3476,-3.81792 3.3476,-4.5957 0,-2.51748 -3.7309,-5.80393 -7.1582,-6.30469 -0.5807,-0.0848 -1.1135,-0.14111 -1.5977,-0.16601 z m 54.1465,2.76562 c -0.5241,-0.0539 -1.8119,1.0633 -3.2929,3.06641 l -2.2793,3.08398 2.5078,-1.64258 c 1.3789,-0.90352 2.7547,-2.29198 3.0586,-3.08398 0.3601,-0.93766 0.3203,-1.39153 0.01,-1.42383 z m -42.8086,1.49024 c -0.04,-0.0157 -0.082,-0.014 -0.1289,0.004 -0.1242,0.0476 -0.2745,0.21396 -0.4531,0.49024 -0.5332,0.82497 -0.9882,2.625 -1.0117,4 -0.029,1.67885 -1.1839,3.32114 -3.5176,5 -3.4836,2.50603 -5.2283,5.96512 -4.0059,7.94336 0.8791,1.42219 0.7675,1.47926 4.0977,-2.09766 1.6154,-1.73507 2.375,-2.83394 1.6875,-2.44141 -2.1658,1.23655 -1.3569,-1.09272 1.2324,-3.54883 1.8364,-1.74184 2.4854,-3.39689 2.4864,-6.35546 6e-4,-1.9339 -0.1096,-2.88303 -0.3868,-2.99414 z m 35.4766,10.49609 c -2.598,0 1.2073,6.9076 3.8379,6.9668 0.8303,0.0187 0.3005,-0.9812 -1.3067,-2.47071 -1.4858,-1.37743 -2.4243,-2.95243 -2.0859,-3.5 0.3384,-0.54757 0.1372,-0.99609 -0.4453,-0.99609 z m 59.9414,5 c -0.55,0 -1,0.5912 -1,1.3125 0,0.72129 -0.9,2.27631 -2,3.45703 -2.5519,2.73915 -2.7336,5.03046 -0.25,3.15234 0.9625,-0.72785 2.3125,-1.99483 3,-2.81445 1.4952,-1.78247 1.6579,-5.10742 0.25,-5.10742 z m -107.1445,1.72461 c -0.044,-0.01 -0.093,-0.008 -0.1485,0.004 -0.3703,0.0799 -0.9934,0.63848 -1.7617,1.61524 -1.6307,2.07309 -2.0677,4.11748 -2.1113,9.88476 -0.074,9.751 -0.1124,9.65986 2.6699,6.49805 1.3425,-1.52555 2.7912,-2.73936 3.2188,-2.69726 0.4277,0.0421 0.9341,-0.73502 1.125,-1.72657 0.2801,-1.45539 0.098,-1.56185 -0.9493,-0.55273 -1.9762,1.9044 -2.8984,1.50706 -2.8984,-1.25 0,-1.60335 0.5632,-2.5 1.5684,-2.5 1.1427,0 1.3839,-0.57476 0.8925,-2.12305 -0.8007,-2.52254 -1.2797,-4.86068 -1.3847,-6.76172 -0.013,-0.2329 -0.09,-0.36142 -0.2207,-0.39062 z m 48.3789,10.02148 c -0.5132,-0.12474 -1.5663,0.96303 -2.9063,3.59961 -1.3008,2.55957 -2.8343,4.6543 -3.4062,4.6543 -0.5719,0 -0.7618,0.44999 -0.4219,1 1.32,2.13585 3.4126,0.81119 5.4863,-3.47266 1.6729,-3.45556 1.908,-5.62087 1.2481,-5.78125 z m -47.9668,9.32032 c -0.6009,-0.0439 -1.5365,0.57326 -2.6738,1.83007 -1.3253,1.46434 -1.4168,2.00273 -0.4043,2.36524 1.6399,0.58717 3.8105,-1.05639 3.8105,-2.88477 0,-0.8428 -0.2651,-1.27636 -0.7324,-1.31054 z m 97.7793,1.95703 c -1.026,0.008 -2.151,0.33608 -2.5469,0.97656 -0.3399,0.55 -0.3392,1.45047 0,2.00195 0.731,1.18328 4.4981,-0.52251 4.4981,-2.03711 l 0,0 c 0,-0.63738 -0.9271,-0.9494 -1.9531,-0.9414 z m -25.6621,1.8457 c -0.6327,0.004 -1.8184,1.20224 -3.3262,3.75781 -1.9366,3.28241 -1.9943,3.78704 -0.5996,5.32813 0.8474,0.93638 1.541,2.32003 1.541,3.07422 0,1.06654 0.2679,1.10325 1.2012,0.16992 0.876,-0.87607 0.9004,-1.49793 0.094,-2.30469 -0.8067,-0.80676 -0.7249,-2.01177 0.3008,-4.4668 1.5023,-3.59548 1.6025,-5.56359 0.7891,-5.55859 z"
         style="fill:#ffffff"
         inkscape:connector-curvature="0" />
      <path
         id="path10482"
         transform="translate(-1087.8827,55.67676)"
         d="m 1689.7168,458.79297 c -3.073,0 -5.4598,14.33286 -3.2754,19.66797 0.6072,1.48306 0.8163,1.26215 1.0918,-1.16406 0.1871,-1.64822 0.743,-3.24588 1.2363,-3.55079 0.5232,-0.32327 0.5324,-1.82801 0.021,-3.60937 -0.9455,-3.29688 -0.4023,-8.03801 1.0215,-8.91797 1.1861,-0.73322 1.119,-2.42578 -0.096,-2.42578 z m 29.0332,0.25391 c -1.5926,-0.0153 -3.6236,1.79342 -6.0605,5.40429 -3.4659,5.13546 -3.628,6.46483 -1.2813,10.4375 1.6874,2.85655 3.2832,3.81076 3.2832,1.96289 0,-0.51754 -0.45,-1.21867 -1,-1.55859 -1.4962,-0.92474 -1.2061,-6.20054 0.5254,-9.54883 1.4573,-2.81812 2.4395,-3.38705 5.2246,-3.02539 1.4341,0.18623 1.7075,-2.52395 0.3398,-3.36914 -0.3202,-0.19811 -0.6637,-0.29921 -1.0312,-0.30273 z m -24.2188,1.74609 c -1.139,0 -1.0565,1.72721 0.1954,4.06641 0.9079,1.69645 2.9648,2.72329 2.9648,1.48046 0,-1.27583 -2.4333,-5.54689 -3.1602,-5.54687 z m 11.7676,3 c -0.8839,0 -1.6074,0.18796 -1.6074,0.41797 0,0.23002 -0.2735,1.13002 -0.6074,2 -0.3983,1.03799 -0.054,1.58203 1,1.58203 0.8839,-1e-5 1.6074,-0.18796 1.6074,-0.41797 0,-0.23002 0.2735,-1.13002 0.6074,-2 0.3983,-1.03799 0.054,-1.58207 -1,-1.58203 z m 11.8633,11.06836 c -0.4568,0.0233 -0.4297,0.49198 0.022,1.54297 0.4455,1.03755 1.5285,4.52701 2.4082,7.7539 1.96,7.18939 2.5148,5.32444 0.8301,-2.79101 -0.6883,-3.3151 -1.8499,-6.12534 -2.6387,-6.38477 -0.2617,-0.0861 -0.4688,-0.12888 -0.6211,-0.12109 z m -30.2695,10.0332 c -0.2158,-0.027 -0.1526,0.36725 0.1523,1.23047 0.356,1.00748 0.7371,5.05748 0.8477,9 l 0.2012,7.16797 0.3437,-7.9043 c 0.2279,-5.24374 -0.057,-8.27375 -0.8477,-9 -0.337,-0.30957 -0.5677,-0.47792 -0.6972,-0.49414 z m 37.8437,16.95899 c -0.1186,0.087 0.044,0.54889 0.4141,1.43945 1.0307,2.47897 1.0527,4.48074 0.078,6.75 l 0,0 c -0.4299,1.00103 -0.324,1.75 0.248,1.75 2.5589,0 2.9696,-7.13873 0.5254,-9.12695 -0.7513,-0.61112 -1.1489,-0.89953 -1.2676,-0.8125 z m -34.289,6.9375 c -0.5578,0 -0.4503,0.66322 0.2441,1.5 0.6847,0.82499 1.6961,1.5 2.2461,1.5 0.5578,0 0.4483,-0.66326 -0.2461,-1.5 -0.6847,-0.825 -1.6941,-1.5 -2.2441,-1.5 z m -5.8965,1.15429 c -0.4887,-0.007 -0.8594,0.54359 -0.8594,1.34571 0,0.91666 0.485,1.50568 1.0762,1.30859 0.5912,-0.19708 1.0742,-0.78612 1.0742,-1.30859 0,-0.52252 -0.483,-1.11152 -1.0742,-1.3086 -0.074,-0.0246 -0.147,-0.0361 -0.2168,-0.0371 z m -24.8594,1.97461 c -0.4531,0 -0.9062,0.0703 -1.25,0.20899 -0.6875,0.27741 -0.125,0.5039 1.25,0.5039 1.375,0 1.9375,-0.22648 1.25,-0.5039 -0.3437,-0.13871 -0.7969,-0.20899 -1.25,-0.20899 z m -34.5371,0.14453 c -0.048,0.003 -0.091,0.0203 -0.125,0.0547 -0.275,0.275 0.023,1.47767 0.6621,2.67188 0.6391,1.1942 1.3871,1.94687 1.6621,1.67187 0.275,-0.275 -0.023,-1.47767 -0.6621,-2.67187 -0.5592,-1.04494 -1.201,-1.75052 -1.5371,-1.72657 z m -1.4043,31.72852 c -0.5824,0 -1.0586,0.44997 -1.0586,1 0,0.55 0.1988,1 0.4414,1 0.2425,0 0.7187,-0.45 1.0586,-1 0.3399,-0.55001 0.1411,-1 -0.4414,-1 z"
         style="fill:#000000"
         inkscape:connector-curvature="0" />
    </g>
  </g>
</svg>
